<svg width="1062" height="748" viewBox="0 0 1062 748" fill="none" xmlns="http://www.w3.org/2000/svg">
<g clip-path="url(#clip0_313_674)">
<rect width="1062" height="748" fill="#3478F6"/>
<path d="M485.162 -26.8551C485.162 -26.8551 446.569 119.657 582.468 157.353C718.367 195.05 1007.86 -64.4146 1007.86 -64.4146C1007.86 -64.4146 747.844 335.774 758.5 367.5C769.156 399.226 1278.15 68.1949 1278.15 68.1949L988 568" stroke="white" stroke-opacity="0.1" stroke-width="118"/>
<rect x="832" y="248.846" width="73.2266" height="27.9638" transform="rotate(-54.8118 832 248.846)" fill="#32ADE6"/>
<rect x="835.694" y="300.955" width="108.714" height="27.9638" transform="rotate(-37.97 835.694 300.955)" fill="#32ADE6"/>
<path d="M525.768 775.247C525.768 775.247 579.322 633.519 448.057 581.954C316.792 530.39 1.98783 758.486 1.98783 758.486C1.98783 758.486 271.314 338.66 264 306.001C256.686 273.342 -253.118 598.604 -253.118 598.604L-48.5 264.001" stroke="white" stroke-opacity="0.1" stroke-width="128"/>
<path d="M469.704 696.12C469.24 695.144 468.568 694.392 467.688 693.864C466.808 693.32 465.784 693.048 464.616 693.048C463.448 693.048 462.392 693.32 461.448 693.864C460.52 694.392 459.784 695.16 459.24 696.168C458.712 697.16 458.448 698.312 458.448 699.624C458.448 700.936 458.712 702.088 459.24 703.08C459.784 704.072 460.52 704.84 461.448 705.384C462.392 705.912 463.448 706.176 464.616 706.176C466.248 706.176 467.592 705.688 468.648 704.712C469.704 703.736 470.32 702.416 470.496 700.752H463.824V698.976H472.824V700.656C472.696 702.032 472.264 703.296 471.528 704.448C470.792 705.584 469.824 706.488 468.624 707.16C467.424 707.816 466.088 708.144 464.616 708.144C463.064 708.144 461.648 707.784 460.368 707.064C459.088 706.328 458.072 705.312 457.32 704.016C456.584 702.72 456.216 701.256 456.216 699.624C456.216 697.992 456.584 696.528 457.32 695.232C458.072 693.92 459.088 692.904 460.368 692.184C461.648 691.448 463.064 691.08 464.616 691.08C466.392 691.08 467.96 691.52 469.32 692.4C470.696 693.28 471.696 694.52 472.32 696.12H469.704ZM477.895 693.048V698.64H483.991V700.44H477.895V706.2H484.711V708H475.711V691.248H484.711V693.048H477.895ZM498.312 691.272V693.048H493.752V708H491.568V693.048H486.984V691.272H498.312ZM509.376 699.384C509.984 699.48 510.536 699.728 511.032 700.128C511.544 700.528 511.944 701.024 512.232 701.616C512.536 702.208 512.688 702.84 512.688 703.512C512.688 704.36 512.472 705.128 512.04 705.816C511.608 706.488 510.976 707.024 510.144 707.424C509.328 707.808 508.36 708 507.24 708H501V691.272H507C508.136 691.272 509.104 691.464 509.904 691.848C510.704 692.216 511.304 692.72 511.704 693.36C512.104 694 512.304 694.72 512.304 695.52C512.304 696.512 512.032 697.336 511.488 697.992C510.96 698.632 510.256 699.096 509.376 699.384ZM503.184 698.496H506.856C507.88 698.496 508.672 698.256 509.232 697.776C509.792 697.296 510.072 696.632 510.072 695.784C510.072 694.936 509.792 694.272 509.232 693.792C508.672 693.312 507.864 693.072 506.808 693.072H503.184V698.496ZM507.048 706.2C508.136 706.2 508.984 705.944 509.592 705.432C510.2 704.92 510.504 704.208 510.504 703.296C510.504 702.368 510.184 701.64 509.544 701.112C508.904 700.568 508.048 700.296 506.976 700.296H503.184V706.2H507.048ZM517.903 706.224H523.759V708H515.719V691.272H517.903V706.224ZM533.662 708.168C532.11 708.168 530.694 707.808 529.414 707.088C528.134 706.352 527.118 705.336 526.366 704.04C525.63 702.728 525.262 701.256 525.262 699.624C525.262 697.992 525.63 696.528 526.366 695.232C527.118 693.92 528.134 692.904 529.414 692.184C530.694 691.448 532.11 691.08 533.662 691.08C535.23 691.08 536.654 691.448 537.934 692.184C539.214 692.904 540.222 693.912 540.958 695.208C541.694 696.504 542.062 697.976 542.062 699.624C542.062 701.272 541.694 702.744 540.958 704.04C540.222 705.336 539.214 706.352 537.934 707.088C536.654 707.808 535.23 708.168 533.662 708.168ZM533.662 706.272C534.83 706.272 535.878 706 536.806 705.456C537.75 704.912 538.486 704.136 539.014 703.128C539.558 702.12 539.83 700.952 539.83 699.624C539.83 698.28 539.558 697.112 539.014 696.12C538.486 695.112 537.758 694.336 536.83 693.792C535.902 693.248 534.846 692.976 533.662 692.976C532.478 692.976 531.422 693.248 530.494 693.792C529.566 694.336 528.83 695.112 528.286 696.12C527.758 697.112 527.494 698.28 527.494 699.624C527.494 700.952 527.758 702.12 528.286 703.128C528.83 704.136 529.566 704.912 530.494 705.456C531.438 706 532.494 706.272 533.662 706.272ZM544.13 699.624C544.13 697.992 544.498 696.528 545.234 695.232C545.97 693.92 546.97 692.896 548.234 692.16C549.514 691.424 550.93 691.056 552.482 691.056C554.306 691.056 555.898 691.496 557.258 692.376C558.618 693.256 559.61 694.504 560.234 696.12H557.618C557.154 695.112 556.482 694.336 555.602 693.792C554.738 693.248 553.698 692.976 552.482 692.976C551.314 692.976 550.266 693.248 549.338 693.792C548.41 694.336 547.682 695.112 547.154 696.12C546.626 697.112 546.362 698.28 546.362 699.624C546.362 700.952 546.626 702.12 547.154 703.128C547.682 704.12 548.41 704.888 549.338 705.432C550.266 705.976 551.314 706.248 552.482 706.248C553.698 706.248 554.738 705.984 555.602 705.456C556.482 704.912 557.154 704.136 557.618 703.128H560.234C559.61 704.728 558.618 705.968 557.258 706.848C555.898 707.712 554.306 708.144 552.482 708.144C550.93 708.144 549.514 707.784 548.234 707.064C546.97 706.328 545.97 705.312 545.234 704.016C544.498 702.72 544.13 701.256 544.13 699.624ZM572.557 708L565.669 700.368V708H563.485V691.272H565.669V699.024L572.581 691.272H575.341L567.757 699.648L575.413 708H572.557ZM578.548 708.144C578.132 708.144 577.78 708 577.492 707.712C577.204 707.424 577.06 707.072 577.06 706.656C577.06 706.24 577.204 705.888 577.492 705.6C577.78 705.312 578.132 705.168 578.548 705.168C578.948 705.168 579.284 705.312 579.556 705.6C579.844 705.888 579.988 706.24 579.988 706.656C579.988 707.072 579.844 707.424 579.556 707.712C579.284 708 578.948 708.144 578.548 708.144ZM585.075 691.272V708H582.891V691.272H585.075ZM596.381 708.168C594.829 708.168 593.413 707.808 592.133 707.088C590.853 706.352 589.837 705.336 589.085 704.04C588.349 702.728 587.981 701.256 587.981 699.624C587.981 697.992 588.349 696.528 589.085 695.232C589.837 693.92 590.853 692.904 592.133 692.184C593.413 691.448 594.829 691.08 596.381 691.08C597.949 691.08 599.373 691.448 600.653 692.184C601.933 692.904 602.941 693.912 603.677 695.208C604.413 696.504 604.781 697.976 604.781 699.624C604.781 701.272 604.413 702.744 603.677 704.04C602.941 705.336 601.933 706.352 600.653 707.088C599.373 707.808 597.949 708.168 596.381 708.168ZM596.381 706.272C597.549 706.272 598.597 706 599.525 705.456C600.469 704.912 601.205 704.136 601.733 703.128C602.277 702.12 602.549 700.952 602.549 699.624C602.549 698.28 602.277 697.112 601.733 696.12C601.205 695.112 600.477 694.336 599.549 693.792C598.621 693.248 597.565 692.976 596.381 692.976C595.197 692.976 594.141 693.248 593.213 693.792C592.285 694.336 591.549 695.112 591.005 696.12C590.477 697.112 590.213 698.28 590.213 699.624C590.213 700.952 590.477 702.12 591.005 703.128C591.549 704.136 592.285 704.912 593.213 705.456C594.157 706 595.213 706.272 596.381 706.272Z" fill="white"/>
<g filter="url(#filter0_d_313_674)">
<path d="M227.045 485.406C236.672 482.688 247.018 485.313 254.185 492.291L291.622 528.743C298.79 535.722 301.689 545.994 299.229 555.69L286.38 606.337C283.92 616.034 276.474 623.681 266.847 626.399L216.56 640.594C206.933 643.312 196.587 640.687 189.42 633.709L151.982 597.257C144.815 590.278 141.915 580.006 144.375 570.31L157.225 519.663C159.685 509.966 167.131 502.319 176.758 499.601L227.045 485.406Z" fill="#32ADE6"/>
</g>
<path d="M221.592 549.879L252.183 563.758L221.592 513V549.879Z" fill="white" fill-opacity="0.5"/>
<path d="M221.591 549.855V513L191 563.758L221.591 549.855Z" fill="white"/>
<path d="M221.592 612.669L252.201 569.561L221.592 587.634L221.592 612.669Z" fill="white" fill-opacity="0.5"/>
<path d="M191 569.561L221.591 612.669V587.634L191 569.561Z" fill="white"/>
<path d="M221.592 549.855V581.842L252.183 563.76L221.592 549.855Z" fill="white" fill-opacity="0.25"/>
<path d="M221.591 549.855L191 563.76L221.591 581.842V549.855Z" fill="white" fill-opacity="0.5"/>
<g filter="url(#filter1_d_313_674)">
<path d="M227.045 101.406C236.672 98.6879 247.018 101.313 254.185 108.291L291.622 144.743C298.79 151.722 301.689 161.994 299.229 171.69L286.38 222.337C283.92 232.034 276.474 239.681 266.847 242.399L216.56 256.594C206.933 259.312 196.587 256.687 189.42 249.709L151.982 213.257C144.815 206.278 141.915 196.006 144.375 186.31L157.225 135.663C159.685 125.966 167.131 118.319 176.758 115.601L227.045 101.406Z" fill="#FFCD35"/>
</g>
<path d="M231.808 208.905V218.886L222.873 224L214.192 218.886V208.905L222.873 214.019L231.808 208.905ZM184 174.386L192.681 179.5V196.615L207.629 205.317V215.298L184 201.729V174.386ZM261.746 174.386V201.771L237.863 215.339V205.359L252.811 196.657V179.541L261.746 174.386ZM237.821 160.817L246.756 165.931V175.912L231.808 184.614V201.977L223.127 207.091L214.489 201.977V184.573L198.99 175.871V165.89L207.925 160.776L222.873 169.478L237.821 160.817ZM198.99 183.047L207.671 188.161V198.141L198.99 193.027V183.047ZM246.756 183.047V193.027L238.075 198.141V188.161L246.756 183.047ZM192.681 152.115L201.616 157.229L192.681 162.343V172.324L184 167.21V157.229L192.681 152.115ZM253.065 152.115L262 157.229V167.21L253.065 172.324V162.343L244.384 157.229L253.065 152.115ZM222.873 152.115L231.808 157.229L222.873 162.343L214.192 157.229L222.873 152.115ZM222.873 135L246.756 148.569L238.075 153.683L223.127 144.981L207.883 153.683L199.202 148.569L222.873 135Z" fill="white"/>
<g filter="url(#filter2_d_313_674)">
<path d="M228.045 285.406C237.672 282.688 248.018 285.313 255.185 292.291L292.622 328.743C299.79 335.722 302.689 345.994 300.229 355.69L287.38 406.337C284.92 416.034 277.474 423.681 267.847 426.399L217.56 440.594C207.933 443.312 197.587 440.687 190.42 433.709L152.982 397.257C145.815 390.278 142.915 380.006 145.375 370.31L158.225 319.663C160.685 309.966 168.131 302.319 177.758 299.601L228.045 285.406Z" fill="#8347E5"/>
</g>
<path d="M247.453 348.134C245.731 347.132 243.491 347.132 241.597 348.134L228.161 355.817L219.031 360.828L205.595 368.511C203.872 369.513 201.633 369.513 199.738 368.511L189.058 362.498C187.336 361.496 186.13 359.659 186.13 357.654V345.796C186.13 343.792 187.163 341.955 189.058 340.952L199.566 335.107C201.288 334.105 203.528 334.105 205.423 335.107L215.93 340.952C217.653 341.955 218.859 343.792 218.859 345.796V353.479L227.988 348.301V340.618C227.988 338.614 226.955 336.777 225.06 335.775L205.595 324.752C203.872 323.749 201.633 323.749 199.738 324.752L179.928 335.775C178.034 336.777 177 338.614 177 340.618V362.832C177 364.836 178.034 366.673 179.928 367.676L199.738 378.699C201.461 379.701 203.7 379.701 205.595 378.699L219.031 371.183L228.161 366.005L241.597 358.489C243.319 357.487 245.559 357.487 247.453 358.489L257.961 364.335C259.684 365.337 260.89 367.174 260.89 369.179V381.037C260.89 383.041 259.856 384.878 257.961 385.881L247.453 391.893C245.731 392.895 243.491 392.895 241.597 391.893L231.089 386.048C229.366 385.045 228.161 383.208 228.161 381.204V373.521L219.031 378.699V386.382C219.031 388.386 220.064 390.223 221.959 391.225L241.769 402.248C243.491 403.251 245.731 403.251 247.626 402.248L267.435 391.225C269.158 390.223 270.364 388.386 270.364 386.382V364.168C270.364 362.164 269.33 360.327 267.435 359.324L247.453 348.134Z" fill="white"/>
<g filter="url(#filter3_d_313_674)">
<path d="M381.045 192.406C390.672 189.688 401.018 192.313 408.185 199.291L445.622 235.743C452.79 242.722 455.689 252.994 453.229 262.69L440.38 313.337C437.92 323.034 430.474 330.681 420.847 333.399L370.56 347.594C360.933 350.312 350.587 347.687 343.42 340.709L305.982 304.257C298.815 297.278 295.915 287.006 298.375 277.31L311.225 226.663C313.685 216.966 321.131 209.319 330.758 206.601L381.045 192.406Z" fill="#FF393A"/>
</g>
<path d="M421.311 256.415C417.046 252.476 411.145 246.462 406.339 242.196L406.055 241.997C405.582 241.617 405.048 241.319 404.477 241.115C392.888 238.954 338.957 228.873 337.905 229.001C337.61 229.042 337.329 229.149 337.081 229.314L336.81 229.527C336.478 229.865 336.225 230.273 336.071 230.722L336 230.906V231.916V232.072C342.071 248.978 366.044 304.36 370.764 317.355C371.049 318.237 371.589 319.915 372.599 320H372.826C373.366 320 375.67 316.957 375.67 316.957C375.67 316.957 416.847 267.022 421.013 261.704C421.552 261.049 422.028 260.344 422.435 259.6C422.538 259.017 422.489 258.417 422.293 257.859C422.096 257.301 421.758 256.803 421.311 256.415ZM386.234 262.23L403.808 247.656L414.117 257.154L386.234 262.23ZM379.409 261.277L349.152 236.48L398.107 245.509L379.409 261.277ZM382.139 267.775L413.107 262.785L377.703 305.44L382.139 267.775ZM345.043 238.954L376.878 265.969L372.272 305.469L345.043 238.954Z" fill="white"/>
<g filter="url(#filter4_d_313_674)">
<path d="M381.045 385.406C390.672 382.688 401.018 385.313 408.185 392.291L445.622 428.743C452.79 435.722 455.689 445.994 453.229 455.69L440.38 506.337C437.92 516.034 430.474 523.681 420.847 526.399L370.56 540.594C360.933 543.312 350.587 540.687 343.42 533.709L305.982 497.257C298.815 490.278 295.915 480.006 298.375 470.31L311.225 419.663C313.685 409.966 321.131 402.319 330.758 399.601L381.045 385.406Z" fill="black"/>
</g>
<path d="M348.351 480.168C348.853 479.655 349.535 479.367 350.245 479.367H415.807C417.002 479.367 417.599 480.842 416.755 481.703L403.8 494.918C403.297 495.431 402.616 495.719 401.905 495.719H336.343C335.149 495.719 334.551 494.244 335.396 493.382L348.351 480.168Z" fill="url(#paint0_linear_313_674)"/>
<path d="M348.351 430.801C348.853 430.288 349.535 430 350.245 430H415.807C417.002 430 417.599 431.474 416.755 432.336L403.8 445.551C403.297 446.063 402.616 446.351 401.905 446.351H336.343C335.149 446.351 334.551 444.877 335.396 444.015L348.351 430.801Z" fill="url(#paint1_linear_313_674)"/>
<path d="M403.8 455.328C403.297 454.815 402.616 454.527 401.905 454.527H336.343C335.149 454.527 334.551 456.002 335.396 456.863L348.351 470.078C348.853 470.591 349.535 470.879 350.245 470.879H415.807C417.002 470.879 417.599 469.404 416.755 468.543L403.8 455.328Z" fill="url(#paint2_linear_313_674)"/>
<g filter="url(#filter5_d_313_674)">
<rect x="635.018" y="212" width="244.758" height="301.24" rx="26" transform="rotate(5.52768 635.018 212)" fill="white"/>
<rect x="654.995" y="238.254" width="199.93" height="248.344" rx="23" transform="rotate(5.52768 654.995 238.254)" fill="#3478F6"/>
<path d="M742.701 372.637L735.612 445.884L676.309 403.933L683.397 330.686L742.701 372.637Z" fill="white"/>
<path opacity="0.25" d="M742.701 372.638L808.948 342.837L801.86 416.084L735.612 445.885L742.701 372.638Z" fill="white"/>
<path opacity="0.5" d="M749.645 300.886L808.948 342.837L742.701 372.638L683.397 330.687L749.645 300.886Z" fill="white"/>
</g>
<g filter="url(#filter6_d_313_674)">
<rect x="685" y="488.027" width="217" height="112" rx="56" transform="rotate(-2.9128 685 488.027)" fill="#FF393A" shape-rendering="crispEdges"/>
<path d="M768.681 528.492L768.865 532.103L762.921 532.406L763.872 551.101L759.398 551.329L758.446 532.633L752.502 532.936L752.318 529.324L768.681 528.492ZM780.957 550.52C779.253 550.607 777.7 550.312 776.298 549.636C774.896 548.938 773.765 547.917 772.906 546.573C772.069 545.227 771.604 543.648 771.512 541.837C771.42 540.026 771.733 538.408 772.45 536.983C773.19 535.557 774.233 534.436 775.579 533.62C776.925 532.782 778.451 532.32 780.155 532.234C781.859 532.147 783.424 532.452 784.848 533.148C786.27 533.824 787.411 534.834 788.27 536.178C789.15 537.522 789.636 539.099 789.728 540.91C789.82 542.721 789.486 544.34 788.726 545.768C787.987 547.194 786.933 548.326 785.566 549.165C784.219 549.981 782.683 550.433 780.957 550.52ZM780.759 546.622C781.569 546.58 782.315 546.35 782.999 545.931C783.702 545.489 784.247 544.863 784.633 544.053C785.019 543.243 785.184 542.274 785.126 541.145C785.041 539.461 784.528 538.195 783.587 537.346C782.667 536.474 781.568 536.071 780.289 536.136C779.011 536.201 777.958 536.714 777.132 537.674C776.325 538.613 775.964 539.923 776.05 541.606C776.136 543.29 776.617 544.568 777.495 545.442C778.392 546.293 779.481 546.687 780.759 546.622ZM797.164 534.22C797.698 533.381 798.452 532.67 799.427 532.086C800.421 531.48 801.568 531.144 802.868 531.078C804.381 531.001 805.763 531.304 807.015 531.988C808.289 532.671 809.313 533.687 810.086 535.036C810.88 536.363 811.323 537.932 811.415 539.743C811.507 541.554 811.227 543.181 810.574 544.624C809.942 546.045 809.027 547.17 807.83 548C806.655 548.828 805.311 549.281 803.798 549.358C802.498 549.424 801.334 549.217 800.306 548.735C799.299 548.252 798.466 547.622 797.806 546.844L798.364 557.805L793.89 558.033L792.56 531.891L797.034 531.663L797.164 534.22ZM806.845 539.975C806.791 538.91 806.521 538.005 806.034 537.261C805.568 536.494 804.962 535.927 804.217 535.559C803.494 535.19 802.716 535.027 801.885 535.069C801.076 535.11 800.32 535.362 799.617 535.825C798.934 536.266 798.389 536.892 797.982 537.703C797.596 538.513 797.43 539.45 797.484 540.516C797.539 541.581 797.799 542.497 798.265 543.264C798.753 544.029 799.359 544.607 800.084 544.997C800.829 545.365 801.606 545.529 802.415 545.488C803.246 545.445 804.003 545.193 804.684 544.731C805.387 544.268 805.931 543.632 806.317 542.822C806.724 542.011 806.9 541.062 806.845 539.975ZM836.895 527.905L826.54 528.432L826.819 533.897C827.238 533.32 827.854 532.84 828.668 532.457C829.48 532.052 830.355 531.826 831.293 531.778C832.997 531.692 834.412 531.994 835.536 532.684C836.661 533.374 837.498 534.293 838.047 535.44C838.596 536.565 838.904 537.789 838.971 539.11C839.096 541.56 838.493 543.566 837.163 545.129C835.854 546.691 833.91 547.538 831.332 547.669C828.903 547.793 826.934 547.284 825.423 546.143C823.912 545.003 823.011 543.457 822.72 541.507L827.066 541.285C827.301 542.128 827.762 542.788 828.449 543.266C829.157 543.742 830.032 543.954 831.076 543.901C832.333 543.837 833.261 543.395 833.861 542.574C834.46 541.753 834.726 540.693 834.66 539.393C834.593 538.072 834.212 537.088 833.516 536.439C832.841 535.769 831.875 535.466 830.618 535.53C829.724 535.575 828.989 535.837 828.415 536.315C827.842 536.792 827.446 537.411 827.228 538.169L822.946 538.387L822.25 524.709L836.695 523.974L836.895 527.905Z" fill="white"/>
</g>
<path opacity="0.5" d="M581.491 312.793C560.688 328.929 555.551 365.529 569.274 386.449" stroke="white" stroke-width="3" stroke-linecap="round" stroke-linejoin="round"/>
<path opacity="0.5" d="M546.108 294.864C519.179 315.751 512.53 363.129 530.294 390.209" stroke="white" stroke-width="3" stroke-linecap="round" stroke-linejoin="round"/>
<path opacity="0.5" d="M908.879 427.421C929.679 411.282 934.809 374.681 921.082 353.764" stroke="white" stroke-width="3" stroke-linecap="round" stroke-linejoin="round"/>
<path opacity="0.5" d="M944.265 445.347C971.19 424.455 977.831 377.076 960.062 349.999" stroke="white" stroke-width="3" stroke-linecap="round" stroke-linejoin="round"/>
<path opacity="0.9" d="M364.87 102.093C364.944 110.699 360.502 118.437 354.139 118.491C360.501 118.437 365.076 126.099 365.149 134.704C365.076 126.099 369.518 118.36 375.88 118.305C369.518 118.36 364.944 110.699 364.87 102.093Z" fill="white"/>
<path opacity="0.9" d="M82.4223 455.547C81.9891 465.666 76.3011 474.491 68.8208 474.171C76.2998 474.491 81.2138 483.772 80.7807 493.889C81.2138 483.772 86.9019 474.945 94.3822 475.266C86.9019 474.945 81.9891 465.666 82.4223 455.547Z" fill="white"/>
<path opacity="0.9" d="M364.245 604.237C364.057 608.618 361.594 612.44 358.356 612.301C361.594 612.44 363.722 616.458 363.534 620.839C363.722 616.458 366.185 612.636 369.423 612.775C366.185 612.636 364.057 608.618 364.245 604.237Z" fill="white"/>
<path opacity="0.9" d="M101.245 254.237C101.057 258.618 98.5944 262.44 95.3555 262.301C98.5939 262.44 100.722 266.458 100.534 270.839C100.722 266.458 103.185 262.636 106.423 262.775C103.185 262.636 101.057 258.618 101.245 254.237Z" fill="white"/>
</g>
<defs>
<filter id="filter0_d_313_674" x="119.515" y="472.352" width="204.575" height="205.297" filterUnits="userSpaceOnUse" color-interpolation-filters="sRGB">
<feFlood flood-opacity="0" result="BackgroundImageFix"/>
<feColorMatrix in="SourceAlpha" type="matrix" values="0 0 0 0 0 0 0 0 0 0 0 0 0 0 0 0 0 0 127 0" result="hardAlpha"/>
<feOffset dy="12"/>
<feGaussianBlur stdDeviation="12"/>
<feComposite in2="hardAlpha" operator="out"/>
<feColorMatrix type="matrix" values="0 0 0 0 0 0 0 0 0 0 0 0 0 0 0 0 0 0 0.025 0"/>
<feBlend mode="normal" in2="BackgroundImageFix" result="effect1_dropShadow_313_674"/>
<feBlend mode="normal" in="SourceGraphic" in2="effect1_dropShadow_313_674" result="shape"/>
</filter>
<filter id="filter1_d_313_674" x="119.515" y="88.3516" width="204.575" height="205.297" filterUnits="userSpaceOnUse" color-interpolation-filters="sRGB">
<feFlood flood-opacity="0" result="BackgroundImageFix"/>
<feColorMatrix in="SourceAlpha" type="matrix" values="0 0 0 0 0 0 0 0 0 0 0 0 0 0 0 0 0 0 127 0" result="hardAlpha"/>
<feOffset dy="12"/>
<feGaussianBlur stdDeviation="12"/>
<feComposite in2="hardAlpha" operator="out"/>
<feColorMatrix type="matrix" values="0 0 0 0 0 0 0 0 0 0 0 0 0 0 0 0 0 0 0.025 0"/>
<feBlend mode="normal" in2="BackgroundImageFix" result="effect1_dropShadow_313_674"/>
<feBlend mode="normal" in="SourceGraphic" in2="effect1_dropShadow_313_674" result="shape"/>
</filter>
<filter id="filter2_d_313_674" x="120.515" y="272.352" width="204.575" height="205.297" filterUnits="userSpaceOnUse" color-interpolation-filters="sRGB">
<feFlood flood-opacity="0" result="BackgroundImageFix"/>
<feColorMatrix in="SourceAlpha" type="matrix" values="0 0 0 0 0 0 0 0 0 0 0 0 0 0 0 0 0 0 127 0" result="hardAlpha"/>
<feOffset dy="12"/>
<feGaussianBlur stdDeviation="12"/>
<feComposite in2="hardAlpha" operator="out"/>
<feColorMatrix type="matrix" values="0 0 0 0 0 0 0 0 0 0 0 0 0 0 0 0 0 0 0.025 0"/>
<feBlend mode="normal" in2="BackgroundImageFix" result="effect1_dropShadow_313_674"/>
<feBlend mode="normal" in="SourceGraphic" in2="effect1_dropShadow_313_674" result="shape"/>
</filter>
<filter id="filter3_d_313_674" x="273.515" y="179.352" width="204.575" height="205.297" filterUnits="userSpaceOnUse" color-interpolation-filters="sRGB">
<feFlood flood-opacity="0" result="BackgroundImageFix"/>
<feColorMatrix in="SourceAlpha" type="matrix" values="0 0 0 0 0 0 0 0 0 0 0 0 0 0 0 0 0 0 127 0" result="hardAlpha"/>
<feOffset dy="12"/>
<feGaussianBlur stdDeviation="12"/>
<feComposite in2="hardAlpha" operator="out"/>
<feColorMatrix type="matrix" values="0 0 0 0 0 0 0 0 0 0 0 0 0 0 0 0 0 0 0.025 0"/>
<feBlend mode="normal" in2="BackgroundImageFix" result="effect1_dropShadow_313_674"/>
<feBlend mode="normal" in="SourceGraphic" in2="effect1_dropShadow_313_674" result="shape"/>
</filter>
<filter id="filter4_d_313_674" x="273.515" y="372.352" width="204.575" height="205.297" filterUnits="userSpaceOnUse" color-interpolation-filters="sRGB">
<feFlood flood-opacity="0" result="BackgroundImageFix"/>
<feColorMatrix in="SourceAlpha" type="matrix" values="0 0 0 0 0 0 0 0 0 0 0 0 0 0 0 0 0 0 127 0" result="hardAlpha"/>
<feOffset dy="12"/>
<feGaussianBlur stdDeviation="12"/>
<feComposite in2="hardAlpha" operator="out"/>
<feColorMatrix type="matrix" values="0 0 0 0 0 0 0 0 0 0 0 0 0 0 0 0 0 0 0.025 0"/>
<feBlend mode="normal" in2="BackgroundImageFix" result="effect1_dropShadow_313_674"/>
<feBlend mode="normal" in="SourceGraphic" in2="effect1_dropShadow_313_674" result="shape"/>
</filter>
<filter id="filter5_d_313_674" x="584.382" y="202.381" width="315.874" height="366.654" filterUnits="userSpaceOnUse" color-interpolation-filters="sRGB">
<feFlood flood-opacity="0" result="BackgroundImageFix"/>
<feColorMatrix in="SourceAlpha" type="matrix" values="0 0 0 0 0 0 0 0 0 0 0 0 0 0 0 0 0 0 127 0" result="hardAlpha"/>
<feOffset dy="12"/>
<feGaussianBlur stdDeviation="12"/>
<feComposite in2="hardAlpha" operator="out"/>
<feColorMatrix type="matrix" values="0 0 0 0 0 0 0 0 0 0 0 0 0 0 0 0 0 0 0.025 0"/>
<feBlend mode="normal" in2="BackgroundImageFix" result="effect1_dropShadow_313_674"/>
<feBlend mode="normal" in="SourceGraphic" in2="effect1_dropShadow_313_674" result="shape"/>
</filter>
<filter id="filter6_d_313_674" x="661" y="465" width="270.411" height="170.883" filterUnits="userSpaceOnUse" color-interpolation-filters="sRGB">
<feFlood flood-opacity="0" result="BackgroundImageFix"/>
<feColorMatrix in="SourceAlpha" type="matrix" values="0 0 0 0 0 0 0 0 0 0 0 0 0 0 0 0 0 0 127 0" result="hardAlpha"/>
<feOffset dy="12"/>
<feGaussianBlur stdDeviation="12"/>
<feComposite in2="hardAlpha" operator="out"/>
<feColorMatrix type="matrix" values="0 0 0 0 0 0 0 0 0 0 0 0 0 0 0 0 0 0 0.025 0"/>
<feBlend mode="normal" in2="BackgroundImageFix" result="effect1_dropShadow_313_674"/>
<feBlend mode="normal" in="SourceGraphic" in2="effect1_dropShadow_313_674" result="shape"/>
</filter>
<linearGradient id="paint0_linear_313_674" x1="390.538" y1="411.971" x2="343.675" y2="499.9" gradientUnits="userSpaceOnUse">
<stop stop-color="#00FFA3"/>
<stop offset="1" stop-color="#DC1FFF"/>
</linearGradient>
<linearGradient id="paint1_linear_313_674" x1="390.538" y1="411.973" x2="343.675" y2="499.902" gradientUnits="userSpaceOnUse">
<stop stop-color="#00FFA3"/>
<stop offset="1" stop-color="#DC1FFF"/>
</linearGradient>
<linearGradient id="paint2_linear_313_674" x1="390.538" y1="411.973" x2="343.675" y2="499.902" gradientUnits="userSpaceOnUse">
<stop stop-color="#00FFA3"/>
<stop offset="1" stop-color="#DC1FFF"/>
</linearGradient>
<clipPath id="clip0_313_674">
<rect width="1062" height="748" fill="white"/>
</clipPath>
</defs>
</svg>
