<?xml version="1.0" encoding="utf-8"?>
<!-- Generator: Adobe Illustrator 22.0.0, SVG Export Plug-In . SVG Version: 6.00 Build 0)  -->
<svg version="1.1" xmlns="http://www.w3.org/2000/svg" xmlns:xlink="http://www.w3.org/1999/xlink" x="0px" y="0px"
	 viewBox="0 0 584 500" style="enable-background:new 0 0 584 500;" xml:space="preserve">
<style type="text/css">
	.st0{fill:#FFFFFF;}
	.st1{fill:#EBF2FF;}
	.st2{opacity:0.43;}
	.st3{fill:#2852F1;}
	.st4{fill:#5202B5;}
	.st5{fill:#FF2828;}
	.st6{fill:#080B21;}
	.st7{opacity:0.37;}
	.st8{fill:#723E24;}
	.st9{fill:#013A5E;}
	.st10{fill:#FFADAD;}
	.st11{fill:#5B2F2F;}
	.st12{fill:#4D75F4;}
	.st13{fill:#E5BB98;}
	.st14{fill:#9A9FB3;}
	.st15{opacity:0.2;fill:#212226;}
	.st16{fill:#77AFFD;}
	.st17{fill:none;stroke:#77AFFD;stroke-width:0.5;stroke-linecap:round;stroke-linejoin:round;}
	.st18{fill:none;stroke:#77AFFD;stroke-width:0.5;stroke-linecap:round;stroke-linejoin:round;stroke-dasharray:1.5913,0.9959;}
	
		.st19{fill:none;stroke:#77AFFD;stroke-width:0.5;stroke-linecap:round;stroke-linejoin:round;stroke-miterlimit:10;stroke-dasharray:1.5978,1;}
	.st20{opacity:0.55;fill:#2852F1;}
	.st21{opacity:0.31;fill:#2852F1;}
	.st22{opacity:0.12;fill:#2852F1;}
	.st23{opacity:0.55;}
	.st24{fill:#124AFC;}
	.st25{opacity:0.2;fill:none;stroke:#212226;stroke-width:0.5;stroke-miterlimit:10;}
</style>
<g id="BACKGROUND">
</g>
<g id="OBJECTS">
	<g>
		<g>
			<g>
				<path class="st0" d="M264.9,521.4c0.8,0,1.7,0,2.5,0c1.3,0,2.6-1.1,2.5-2.5c-0.1-1.4-1.1-2.5-2.5-2.5c-0.8,0-1.7,0-2.5,0
					c-1.3,0-2.6,1.1-2.5,2.5C262.4,520.3,263.5,521.4,264.9,521.4L264.9,521.4z"/>
			</g>
		</g>
		<g>
			<path class="st1" d="M504.3,407c-69.2,75.8-157.3,93.8-262.4,76.3C136.7,465.9,17.3,417.2,24.3,294.9
				c6.9-122.3,136.9-133.7,213.3-226c46.1-55.8,164.2-63.6,244,8.6C540,130.4,621.5,278.6,504.3,407z"/>
			<path class="st1" d="M506.1,366.5c-53.7,74.1-127,96.9-217.1,88.7C199,447,94.9,411.5,93,299.7C91.1,187.9,200.3,168,259,78.3
				c35.5-54.2,134.9-69.9,206.9-10C518.7,112.1,597.1,241.1,506.1,366.5z"/>
			<ellipse class="st1" cx="310" cy="403.5" rx="147.2" ry="21.8"/>
			<g class="st2">
				<g>
					<g>
						<path class="st3" d="M510.5,104.2c0,0.9,0.7,1.6,1.6,1.6c0.9,0,1.6-0.7,1.6-1.6c0-0.9-0.7-1.6-1.6-1.6
							C511.2,102.6,510.5,103.3,510.5,104.2z"/>
						<path class="st3" d="M503.9,104.2c0,0.9,0.7,1.6,1.6,1.6c0.9,0,1.6-0.7,1.6-1.6c0-0.9-0.7-1.6-1.6-1.6
							C504.6,102.6,503.9,103.3,503.9,104.2z"/>
						<path class="st3" d="M497.2,104.2c0,0.9,0.7,1.6,1.6,1.6s1.6-0.7,1.6-1.6c0-0.9-0.7-1.6-1.6-1.6S497.2,103.3,497.2,104.2z"/>
						<path class="st3" d="M490.6,104.2c0,0.9,0.7,1.6,1.6,1.6c0.9,0,1.6-0.7,1.6-1.6c0-0.9-0.7-1.6-1.6-1.6
							C491.3,102.6,490.6,103.3,490.6,104.2z"/>
						<circle class="st3" cx="485.6" cy="104.2" r="1.6"/>
						<path class="st3" d="M477.4,104.2c0,0.9,0.7,1.6,1.6,1.6s1.6-0.7,1.6-1.6c0-0.9-0.7-1.6-1.6-1.6S477.4,103.3,477.4,104.2z"/>
						<path class="st3" d="M470.8,104.2c0,0.9,0.7,1.6,1.6,1.6c0.9,0,1.6-0.7,1.6-1.6c0-0.9-0.7-1.6-1.6-1.6
							C471.5,102.6,470.8,103.3,470.8,104.2z"/>
						<path class="st3" d="M464.1,104.2c0,0.9,0.7,1.6,1.6,1.6s1.6-0.7,1.6-1.6c0-0.9-0.7-1.6-1.6-1.6S464.1,103.3,464.1,104.2z"/>
					</g>
				</g>
				<g>
					<path class="st4" d="M287.4,324.8c0,0.9,0.7,1.6,1.6,1.6c0.9,0,1.6-0.7,1.6-1.6c0-0.9-0.7-1.6-1.6-1.6
						C288.1,323.3,287.4,324,287.4,324.8z"/>
					<path class="st4" d="M280.7,324.8c0,0.9,0.7,1.6,1.6,1.6c0.9,0,1.6-0.7,1.6-1.6c0-0.9-0.7-1.6-1.6-1.6
						C281.4,323.3,280.7,324,280.7,324.8z"/>
					<path class="st4" d="M274.1,324.8c0,0.9,0.7,1.6,1.6,1.6c0.9,0,1.6-0.7,1.6-1.6c0-0.9-0.7-1.6-1.6-1.6
						C274.8,323.3,274.1,324,274.1,324.8z"/>
					<path class="st4" d="M267.5,324.8c0,0.9,0.7,1.6,1.6,1.6c0.9,0,1.6-0.7,1.6-1.6c0-0.9-0.7-1.6-1.6-1.6
						C268.2,323.3,267.5,324,267.5,324.8z"/>
					<path class="st4" d="M260.9,324.8c0,0.9,0.7,1.6,1.6,1.6c0.9,0,1.6-0.7,1.6-1.6c0-0.9-0.7-1.6-1.6-1.6
						C261.6,323.3,260.9,324,260.9,324.8z"/>
					<path class="st4" d="M254.3,324.8c0,0.9,0.7,1.6,1.6,1.6c0.9,0,1.6-0.7,1.6-1.6c0-0.9-0.7-1.6-1.6-1.6
						C255,323.3,254.3,324,254.3,324.8z"/>
					<path class="st4" d="M247.6,324.8c0,0.9,0.7,1.6,1.6,1.6c0.9,0,1.6-0.7,1.6-1.6c0-0.9-0.7-1.6-1.6-1.6
						C248.3,323.3,247.6,324,247.6,324.8z"/>
					<path class="st4" d="M241,324.8c0,0.9,0.7,1.6,1.6,1.6c0.9,0,1.6-0.7,1.6-1.6c0-0.9-0.7-1.6-1.6-1.6
						C241.7,323.3,241,324,241,324.8z"/>
				</g>
				<g>
					<path class="st4" d="M212.7,212.6c0,0.9,0.7,1.6,1.6,1.6c0.9,0,1.6-0.7,1.6-1.6c0-0.9-0.7-1.6-1.6-1.6
						C213.4,211,212.7,211.7,212.7,212.6z"/>
					<path class="st4" d="M206.1,212.6c0,0.9,0.7,1.6,1.6,1.6s1.6-0.7,1.6-1.6c0-0.9-0.7-1.6-1.6-1.6S206.1,211.7,206.1,212.6z"/>
					<path class="st4" d="M199.5,212.6c0,0.9,0.7,1.6,1.6,1.6c0.9,0,1.6-0.7,1.6-1.6c0-0.9-0.7-1.6-1.6-1.6
						C200.2,211,199.5,211.7,199.5,212.6z"/>
					<path class="st4" d="M192.9,212.6c0,0.9,0.7,1.6,1.6,1.6c0.9,0,1.6-0.7,1.6-1.6c0-0.9-0.7-1.6-1.6-1.6
						C193.6,211,192.9,211.7,192.9,212.6z"/>
					<path class="st4" d="M186.2,212.6c0,0.9,0.7,1.6,1.6,1.6c0.9,0,1.6-0.7,1.6-1.6c0-0.9-0.7-1.6-1.6-1.6
						C186.9,211,186.2,211.7,186.2,212.6z"/>
					<path class="st4" d="M179.6,212.6c0,0.9,0.7,1.6,1.6,1.6c0.9,0,1.6-0.7,1.6-1.6c0-0.9-0.7-1.6-1.6-1.6
						C180.3,211,179.6,211.7,179.6,212.6z"/>
					<path class="st4" d="M173,212.6c0,0.9,0.7,1.6,1.6,1.6c0.9,0,1.6-0.7,1.6-1.6c0-0.9-0.7-1.6-1.6-1.6
						C173.7,211,173,211.7,173,212.6z"/>
					<path class="st4" d="M166.4,212.6c0,0.9,0.7,1.6,1.6,1.6c0.9,0,1.6-0.7,1.6-1.6c0-0.9-0.7-1.6-1.6-1.6
						C167.1,211,166.4,211.7,166.4,212.6z"/>
				</g>
				<g>
					<polygon class="st5" points="322.2,67.7 331,81.8 322.2,85.9 313.5,81.8 					"/>
					<polygon class="st5" points="322.2,98.5 313.5,84.4 322.2,90.1 331,84.4 					"/>
				</g>
				<g>
					<polygon class="st3" points="230,339.9 238.8,354 230,358.1 221.3,354 					"/>
					<polygon class="st3" points="230,370.7 221.3,356.5 230,362.3 238.8,356.5 					"/>
				</g>
				<path class="st3" d="M229.8,62.4c1.4,1.4,3.7,1.4,5.1,0c1.1-1.1,1.3-2.8,0.7-4.1l2.8-2.8H250c0.4,0.9,1.4,1.5,2.4,1.5
					c1.5,0,2.7-1.2,2.7-2.7c0-1.5-1.2-2.7-2.7-2.7c-1.1,0-2,0.6-2.4,1.5h-12.5l-3.5,3.5c-1.3-0.6-3-0.4-4.1,0.7
					C228.4,58.7,228.4,61,229.8,62.4z M230.4,57.9c0.8-0.8,1.9-1,2.9-0.7c0.4,0.1,0.8,0.3,1.1,0.7c0.3,0.3,0.5,0.7,0.7,1.1
					c0.3,1,0.1,2.1-0.7,2.9c-1.1,1.1-2.8,1.1-3.9,0S229.3,59,230.4,57.9z"/>
				<path class="st3" d="M238.3,70.3c1.4,1.4,3.7,1.4,5.1,0c1.1-1.1,1.4-2.8,0.7-4.1l2.8-2.8h11.5c0.4,0.9,1.4,1.5,2.4,1.5
					c1.5,0,2.7-1.2,2.7-2.7c0-1.5-1.2-2.7-2.7-2.7c-1.1,0-2,0.6-2.4,1.5h-12.5l-3.5,3.5c-1.3-0.6-3-0.4-4.1,0.7
					C236.9,66.6,236.9,68.9,238.3,70.3z M238.9,65.8c0.8-0.8,1.9-1,2.9-0.7c0.4,0.1,0.8,0.3,1.1,0.7c0.3,0.3,0.5,0.7,0.7,1.1
					c0.3,1,0.1,2.1-0.7,2.9c-1.1,1.1-2.8,1.1-3.9,0C237.8,68.7,237.8,66.9,238.9,65.8z"/>
				<path class="st3" d="M489.9,279.5c1.4,1.4,3.7,1.4,5.1,0c1.1-1.1,1.3-2.8,0.7-4.1l2.8-2.8h11.5c0.4,0.9,1.4,1.5,2.4,1.5
					c1.5,0,2.7-1.2,2.7-2.7c0-1.5-1.2-2.7-2.7-2.7c-1.1,0-2,0.6-2.4,1.5h-12.5l-3.5,3.5c-1.3-0.6-3-0.4-4.1,0.7
					C488.5,275.8,488.5,278.1,489.9,279.5z M490.5,275c0.8-0.8,1.9-1,2.9-0.7c0.4,0.1,0.8,0.3,1.1,0.7c0.3,0.3,0.5,0.7,0.7,1.1
					c0.3,1,0.1,2.1-0.7,2.9c-1.1,1.1-2.8,1.1-3.9,0C489.5,277.8,489.5,276.1,490.5,275z"/>
				<path class="st3" d="M498.5,287.4c1.4,1.4,3.7,1.4,5.1,0c1.1-1.1,1.4-2.8,0.7-4.1l2.8-2.8h11.5c0.4,0.9,1.4,1.5,2.4,1.5
					c1.5,0,2.7-1.2,2.7-2.7c0-1.5-1.2-2.7-2.7-2.7c-1.1,0-2,0.6-2.4,1.5h-12.5l-3.5,3.5c-1.3-0.6-3-0.4-4.1,0.7
					C497.1,283.7,497.1,286,498.5,287.4z M499.1,282.9c0.8-0.8,1.9-1,2.9-0.7c0.4,0.1,0.8,0.3,1.1,0.7c0.3,0.3,0.5,0.7,0.7,1.1
					c0.3,1,0.1,2.1-0.7,2.9c-1.1,1.1-2.8,1.1-3.9,0C498,285.7,498,284,499.1,282.9z"/>
				<g>
					<polygon class="st3" points="354.7,21.6 358.7,14.8 362.6,21.6 360.5,21.6 360.5,28 356.8,28 356.8,21.6 					"/>
					<polygon class="st3" points="348,29.4 351.9,22.6 355.8,29.4 353.7,29.4 353.7,35.8 350.1,35.8 350.1,29.4 					"/>
				</g>
				<g>
					<polygon class="st3" points="191.1,251.8 186.2,260.4 181.2,251.8 183.8,251.8 183.8,243.7 188.5,243.7 188.5,251.8 					"/>
					<polygon class="st3" points="199.6,241.8 194.7,250.4 189.7,241.8 192.4,241.8 192.4,233.8 197,233.8 197,241.8 					"/>
				</g>
				<path class="st3" d="M106.9,178.4c0.4-2.2,2.5-3.8,4.7-3.5c1.9,0.2,3.3,1.6,3.7,3.4l1.6,0.2c1.6,0.2,3.2-0.4,4.4-1.5l1.2-1.2
					c-0.8-1.6-0.5-3.6,0.8-4.9c1.6-1.6,4.2-1.6,5.9-0.1c1.8,1.7,1.9,4.5,0.1,6.2c-1.3,1.3-3.3,1.6-4.9,0.8l-0.8,0.8
					c-1.3,1.3-1.8,3.1-1.4,4.8l0.3,1.2c1.8,0.2,3.3,1.5,3.7,3.4c0.4,2.2-0.9,4.4-3.1,5c-2.4,0.6-4.8-0.9-5.3-3.3
					c-0.4-1.8,0.5-3.6,2-4.6c-0.5-2.2-2.3-3.9-4.5-4.1l-0.2,0c-0.8,1.6-2.5,2.6-4.4,2.4C108.2,183.1,106.5,180.9,106.9,178.4z"/>
				<path class="st3" d="M460.5,355.1c0.4-2.2,2.5-3.8,4.7-3.5c1.9,0.2,3.3,1.6,3.7,3.4l1.6,0.2c1.6,0.2,3.2-0.4,4.4-1.5l1.2-1.2
					c-0.8-1.6-0.5-3.6,0.8-4.9c1.6-1.6,4.2-1.6,5.9-0.1c1.8,1.7,1.9,4.5,0.1,6.2c-1.3,1.3-3.3,1.6-4.9,0.8l-0.8,0.8
					c-1.3,1.3-1.8,3.1-1.4,4.8l0.3,1.2c1.8,0.2,3.3,1.5,3.7,3.4c0.4,2.2-0.9,4.4-3.1,5c-2.4,0.6-4.8-0.9-5.3-3.3
					c-0.4-1.8,0.5-3.6,2-4.6c-0.5-2.2-2.3-3.9-4.5-4.1l-0.2,0c-0.8,1.6-2.5,2.6-4.4,2.4C461.8,359.8,460.1,357.6,460.5,355.1z"/>
				<path class="st3" d="M411.1,73.8c0.4-2.2,2.5-3.8,4.7-3.5c1.9,0.2,3.3,1.6,3.7,3.4l1.6,0.2c1.6,0.2,3.2-0.4,4.4-1.5l1.2-1.2
					c-0.8-1.6-0.5-3.6,0.8-4.9c1.6-1.6,4.2-1.6,5.9-0.1c1.8,1.7,1.9,4.5,0.1,6.2c-1.3,1.3-3.3,1.6-4.9,0.8l-0.8,0.8
					c-1.3,1.3-1.8,3.1-1.4,4.8l0.3,1.2c1.8,0.2,3.3,1.5,3.7,3.4c0.4,2.2-0.9,4.4-3.1,5c-2.4,0.6-4.8-0.9-5.3-3.3
					c-0.4-1.8,0.5-3.6,2-4.6c-0.5-2.2-2.3-3.9-4.5-4.1l-0.2,0c-0.8,1.6-2.5,2.6-4.4,2.4C412.4,78.5,410.7,76.3,411.1,73.8z"/>
				<g>
					<polygon class="st3" points="510.1,203.9 514,197.1 517.9,203.9 515.8,203.9 515.8,210.3 512.2,210.3 512.2,203.9 					"/>
					<polygon class="st3" points="503.4,211.7 507.3,204.9 511.2,211.7 509.1,211.7 509.1,218.1 505.4,218.1 505.4,211.7 					"/>
				</g>
				<g>
					<path class="st4" d="M204.7,371.9c0,0.9,0.7,1.6,1.6,1.6c0.9,0,1.6-0.7,1.6-1.6c0-0.9-0.7-1.6-1.6-1.6
						C205.4,370.3,204.7,371,204.7,371.9z"/>
					<path class="st4" d="M198.1,371.9c0,0.9,0.7,1.6,1.6,1.6c0.9,0,1.6-0.7,1.6-1.6c0-0.9-0.7-1.6-1.6-1.6
						C198.8,370.3,198.1,371,198.1,371.9z"/>
					<path class="st4" d="M191.4,371.9c0,0.9,0.7,1.6,1.6,1.6c0.9,0,1.6-0.7,1.6-1.6c0-0.9-0.7-1.6-1.6-1.6
						C192.1,370.3,191.4,371,191.4,371.9z"/>
					<path class="st4" d="M184.8,371.9c0,0.9,0.7,1.6,1.6,1.6s1.6-0.7,1.6-1.6c0-0.9-0.7-1.6-1.6-1.6S184.8,371,184.8,371.9z"/>
					<path class="st4" d="M178.2,371.9c0,0.9,0.7,1.6,1.6,1.6c0.9,0,1.6-0.7,1.6-1.6c0-0.9-0.7-1.6-1.6-1.6
						C178.9,370.3,178.2,371,178.2,371.9z"/>
					<path class="st4" d="M171.6,371.9c0,0.9,0.7,1.6,1.6,1.6s1.6-0.7,1.6-1.6c0-0.9-0.7-1.6-1.6-1.6S171.6,371,171.6,371.9z"/>
					<path class="st4" d="M165,371.9c0,0.9,0.7,1.6,1.6,1.6c0.9,0,1.6-0.7,1.6-1.6c0-0.9-0.7-1.6-1.6-1.6
						C165.7,370.3,165,371,165,371.9z"/>
					<path class="st4" d="M158.3,371.9c0,0.9,0.7,1.6,1.6,1.6s1.6-0.7,1.6-1.6c0-0.9-0.7-1.6-1.6-1.6S158.3,371,158.3,371.9z"/>
				</g>
			</g>
			<g>
				<g>
					<g>
						<g>
							<g>
								<g>
									<path class="st6" d="M430.9,389.5L397,308.6l5.4-2.2l30.8,82.1c0.3,0.8,0,1.7-0.6,2C432.1,390.8,431.3,390.3,430.9,389.5z"
										/>
								</g>
							</g>
						</g>
						<g>
							<g>
								<g>
									<path class="st7" d="M403.4,308.9l-3.4,1.4l31.8,80.1c-0.4-0.2-0.7-0.5-0.9-1L397,308.6l5.4-2.2L403.4,308.9z"/>
								</g>
							</g>
						</g>
					</g>
					<g>
						<g>
							<g>
								<g>
									<path class="st6" d="M377.3,389l-1.6-87.7h5.8l-1.6,87.7c0,0.9-0.6,1.6-1.3,1.6C377.9,390.6,377.3,389.8,377.3,389z"/>
								</g>
							</g>
						</g>
						<g>
							<g>
								<g>
									<path class="st7" d="M381.5,303.6h-4.3l1.6,87c-0.1,0-0.1,0-0.2,0c-0.7,0-1.3-0.7-1.3-1.6l-1.6-87.7h5.8L381.5,303.6z"/>
								</g>
							</g>
						</g>
					</g>
					<g>
						<g>
							<g>
								<g>
									<path class="st8" d="M326.3,389.5l33.9-80.9l-5.4-2.2l-30.8,82.1c-0.3,0.8,0,1.7,0.6,2
										C325.1,390.8,325.9,390.3,326.3,389.5z"/>
								</g>
							</g>
						</g>
						<g class="st7">
							<g>
								<g>
									<path d="M323.9,388.5l30.8-82.1l5.4,2.2l-0.6,1.5l-3.4-1.3l-30.6,81.6c-0.3,0.2-0.7,0.3-1,0.1
										C323.8,390.2,323.6,389.4,323.9,388.5z"/>
								</g>
							</g>
						</g>
					</g>
				</g>
				<g>
					<g>
						<g>
							<g>
								<path class="st9" d="M339.9,308.4c5.9,4.8,14.7,9.2,36.9,9.7c29.3,0.6,44.6-2.7,52.9-17.9c13.9-25.2-3.5-106.7-30.9-88.7
									c-22.9,15.1-27.5,63.3-30.6,69.9C365.3,288.2,325.5,296.8,339.9,308.4z"/>
							</g>
						</g>
					</g>
				</g>
				<g>
					<g>
						<g>
							<path class="st5" d="M371.8,311.9c29.3,0.6,44.6-2.7,52.9-17.9c9.5-17.2,4.4-60.6-8.5-80.7c16.5,15.3,24.2,67.7,13.6,87
								c-8.3,15.1-23.7,18.4-52.9,17.9c-22.3-0.4-31-4.9-36.9-9.7c-2-1.6-3-3.2-3.1-4.7C342.7,307.9,351.9,311.5,371.8,311.9z"/>
						</g>
					</g>
				</g>
			</g>
			<g>
				<path class="st6" d="M334.9,368.5c-0.4,2.1,3.7,7.8-1.8,12.5c-5.4,4.7-17.7,9.7-9.6,9.9c8.2,0.2,16-1.7,20.1-3.8
					c4.1-2.1,0.8-5.3,6-6.9c6.8-2.1,6.7-2.6,3.4-10C348.6,360.2,336.1,361.6,334.9,368.5z"/>
				<path class="st6" d="M327,375.7c-0.9,1.8-5.5,6.1-11.8,8.9c-6.3,2.8-19.6,4.1-12.2,6.6c7.4,2.5,16,1,20.4,0.3
					c4.4-0.7,8.6-0.8,13.8-0.8c6.8,0,6.8-0.5,5.9-8.1C341.9,372,330.1,369.8,327,375.7z"/>
				<path class="st10" d="M343,371.5l-2.6,6.5c0,0-6.5,1.6-9.6-0.1c-3.1-1.7-1.9-3.1-1.9-3.1l2.7-9.6L343,371.5z"/>
				<path class="st6" d="M372.6,285c0,0-27.9,6.1-38,8.6c-10.1,2.5-18,6.7-13.3,23.6c4.7,16.9,12.6,47.7,12.6,47.7h18l-9.5-55.4
					l52.7-6.2l9.7-21.5L372.6,285z"/>
				<path class="st6" d="M413.7,285c-1.2,8.7,1.4,18.7-12.1,22.6c-13.5,3.9-34.6,4.2-34.6,4.2l-21.1,63.3c0,0-5.9,0.9-13.1-1.3
					c-3-0.9-4-4.7-4-4.7l19.1-64.7c1.5-5.1,5.5-9,10.7-10.3l32.4-9.9L413.7,285z"/>
				<g>
					<path class="st3" d="M408.8,255.8c-1.3,3.4-1.6,7.1-0.8,10.6c1.6,7-0.2,7.5-0.2,7.5s-9.5,6.1-17.5,8.5
						c-5.7,1.8-10.5,1.5-10.4-4.8l0-0.1c0-0.4,0-0.7,0-1.1c0.3-14.1-2.7-14.8-3.4-30.7c-0.7-16.2,3.6-25.3,7.9-29.2
						c4.3-3.9,10.2-4.1,21.2-1.5c8.3,2,11,4.2,11,10.3c0,2-0.4,4.5-0.9,7.6C414.3,240.8,411,250,408.8,255.8z"/>
					<path class="st3" d="M408.8,255.8c-1.3,3.4-1.6,7.1-0.8,10.6c1.6,7-0.2,7.5-0.2,7.5s-9.5,6.1-17.5,8.5l-7.4-0.7l-3-2.3l0-1.9
						c0-0.4,0-0.7,0-1.1c1.7,0.2,5.6,0.4,11.2-0.3c4.4-0.5,8.3-1.7,11-2.8c1.9-0.7,3.1-2.7,2.7-4.8c-0.5-2.8-1-6.8-1-9.9
						c0-3.1,1.5-8.4,2.6-12.2c0.9-2.9,1.2-6,1-9c-0.4-5.2,0-10.2,0-10.2l5.9-3.2l3.3,1.2c0,2-0.4,4.5-0.9,7.6
						C414.3,240.8,411,250,408.8,255.8z"/>
					<g>
						<path class="st11" d="M382.1,187.6c0,0-0.7,2.1,0.4,3.7l4.6-6.2l-3.2,0L382.1,187.6z"/>
						<path class="st10" d="M406.9,195.8c-0.2,8-7.1,12.6-7.1,12.6l0.5,7.2l-4.6,3l-3.2,2.1l-1.8-3.8l-0.3-4.7
							c-0.1-1.1-0.8-2-1.9-2.2c-1.2-0.3-2.8-0.9-4.5-2.7c-0.1-0.1-0.2-0.2-0.3-0.4c0,0,0,0,0,0c-3-4.1-4.1-19.8,6.1-24.2
							C400.4,178,407.1,187.8,406.9,195.8z"/>
						<path class="st10" d="M395.3,214.2l0.3,4.3l-3.2,2.1l-1.8-3.8l-0.3-4.7c-0.1-1.1-0.8-2-1.9-2.2c-1.2-0.3-2.8-0.9-4.5-2.7
							c-0.1-0.1-0.2-0.2-0.3-0.4c0.2,0.1,2.7,1.6,6.5,2C392.9,209.1,395.1,211.4,395.3,214.2z"/>
						<path class="st6" d="M395.8,198.2c0.4,0.2,0.8-0.5,0.8-0.5s2.2-5,3-5.8c1.4-1.4,4.6-1.3,4.9,3c0.2,3.3-3.7,10.4-4.9,12.5
							c-0.2,0.3-0.1,0.8,0.2,1c0.1,0.1,0.3,0.1,0.4,0.2h0.1c0.2,0,0.4-0.1,0.5-0.2c2.5-2.2,13.7-13,4.8-23.1c0,0-7.1,0.5-8.1,3.9
							c-1.1,3.4-1.8,8-1.8,8S395.3,198,395.8,198.2z"/>
						<path class="st6" d="M382.1,187.6c0,0,6.2-4.8,15.6,1.1l7.7-2c0,0,0.3-0.1,0.2-1.3c-0.2-1.2-1-12.4-14.5-9.9
							C383.3,177,378.6,182.3,382.1,187.6z"/>
					</g>
					<path class="st12" d="M400.2,212.2c0,0,1.1,0.6,2.2,2.3c0,0-1.5,0.7-2.9,1.5c-1.2,0.7-7.1,4.9-7.1,4.9l-1.7-3.5
						C390.8,217.3,396.9,213.1,400.2,212.2z"/>
					<path class="st12" d="M390.8,217.3c0,0-2,0.7-2.7,2.2c0,0-1-2,0.3-5.6c0,0,1.1-1.1,2-1.4L390.8,217.3z"/>
					<path class="st13" d="M407,280.8c0,0-1.1,1.4-1.4,1.5c-0.3,0.2-0.4-0.2-0.3-0.5C405.5,281.6,407,280.4,407,280.8z"/>
					<path class="st11" d="M400.1,208.7L400.1,208.7c0.2,0,0.4-0.1,0.6-0.2c2.5-2.2,13.7-13,4.8-23.1c0,0,0.4,1.8,0.3,3.2
						C405.8,188.7,411.4,197.8,400.1,208.7z"/>
					<path class="st10" d="M425,245.5c0,0,5.9,27.4,3.1,29.4c-2.8,2.1-34.5,2.4-37.5,2.9c-2.9,0.5-15.1,2.4-21.2-3
						c-0.8-0.7,3.8-0.4,4.8-2.8c1.1-2.4-0.6-2.1,0-3.1c2.2-3.8,14.7,0.8,14.7,0.8s20.5-3.5,26.4-1.8c-3.6-4.3-4.4-20.4-4.4-20.4
						L425,245.5z"/>
					<path class="st12" d="M426.6,246.9c0,0-4-25.1-11.6-28.5c-7.6-3.4-12.9,7.5-10.1,18.6c2.8,11.1,3.5,15.2,3.5,15.2
						S419.8,253.4,426.6,246.9z"/>
				</g>
			</g>
			<g>
				<g>
					<g>
						<polygon class="st0" points="430.4,402.7 435.8,402.7 431.5,278.9 420.7,278.9 						"/>
						<polygon class="st0" points="432.1,294.3 421.9,294.3 420.7,278.9 431.5,278.9 						"/>
					</g>
					<g>
						<polygon class="st0" points="189.6,402.7 184.2,402.7 188.4,278.9 199.2,278.9 						"/>
						<polygon class="st0" points="187.9,294.3 198,294.3 199.2,278.9 188.4,278.9 						"/>
					</g>
				</g>
				<path class="st0" d="M176.3,284.4h267.3c1.7,0,3.1-1.4,3.1-3.1v-4c0-1.7-1.4-3.1-3.1-3.1H176.3c-1.7,0-3.1,1.4-3.1,3.1v4
					C173.3,283,174.6,284.4,176.3,284.4z"/>
				<path class="st0" d="M446.5,281c-0.6,1.9-2.3,3.4-4.4,3.4H177.9c-2.1,0-3.9-1.4-4.4-3.4H446.5z"/>
			</g>
			<g>
				<path class="st14" d="M408,274.2h-78V272h76.9c0.6,0,1.2,0.5,1.2,1.2V274.2z"/>
				<g>
					<path class="st0" d="M381.4,274.2h-52.8l-5.1-32.3c-0.3-1.7,0.9-3,2.5-3h46.8c1.6,0,3.2,1.3,3.4,3L381.4,274.2z"/>
					<path class="st15" d="M372.9,238.9h-1.4c1.6,0,3.2,1.3,3.4,3l5.1,32.3h1.4l-5.1-32.3C376.1,240.2,374.5,238.9,372.9,238.9z"/>
					<path class="st5" d="M358,256.5c0.5,3.2-1.7,5.8-4.8,5.8s-6.2-2.6-6.7-5.8c-0.5-3.2,1.7-5.8,4.8-5.8S357.5,253.3,358,256.5z"/>
				</g>
			</g>
			<g>
				<path class="st16" d="M271.1,150.4c0,2.9,2.4,5.3,5.3,5.3c2.9,0,5.3-2.4,5.3-5.3c0-2.9-2.4-5.3-5.3-5.3
					C273.4,145.2,271.1,147.5,271.1,150.4z"/>
				<g>
					<g>
						<line class="st17" x1="411.5" y1="150.4" x2="410.7" y2="150.4"/>
						<line class="st18" x1="409.7" y1="150.4" x2="229.1" y2="150.4"/>
						<line class="st17" x1="228.6" y1="150.4" x2="227.8" y2="150.4"/>
					</g>
				</g>
				<line class="st19" x1="276.3" y1="152.2" x2="276.3" y2="223.7"/>
				<g>
					<path class="st0" d="M180.1,170.7h63.1c0.7,0,1.3-0.6,1.3-1.3v-37.6c0-0.7-0.6-1.3-1.3-1.3h-63.1c-0.7,0-1.3,0.6-1.3,1.3v37.6
						C178.9,170.2,179.4,170.7,180.1,170.7z"/>
					<g>
						<g>
							<path class="st20" d="M235.3,152.1v13.7c0,0.5,0.4,0.8,0.8,0.8h1.9c0.5,0,0.8-0.4,0.8-0.8v-13.7c0-0.5-0.4-0.8-0.8-0.8h-1.9
								C235.6,151.3,235.3,151.7,235.3,152.1z"/>
							<path class="st20" d="M227.9,152.1v13.7c0,0.5,0.4,0.8,0.8,0.8h1.9c0.5,0,0.8-0.4,0.8-0.8v-13.7c0-0.5-0.4-0.8-0.8-0.8h-1.9
								C228.3,151.3,227.9,151.7,227.9,152.1z"/>
							<path class="st20" d="M220.6,146.1v19.7c0,0.5,0.4,0.8,0.8,0.8h1.9c0.5,0,0.8-0.4,0.8-0.8v-19.7c0-0.5-0.4-0.8-0.8-0.8h-1.9
								C221,145.2,220.6,145.6,220.6,146.1z"/>
							<path class="st20" d="M213.3,143.3v22.5c0,0.5,0.4,0.8,0.8,0.8h1.9c0.5,0,0.8-0.4,0.8-0.8v-22.5c0-0.5-0.4-0.8-0.8-0.8h-1.9
								C213.6,142.4,213.3,142.8,213.3,143.3z"/>
							<path class="st20" d="M205.9,147.7v18.1c0,0.5,0.4,0.8,0.8,0.8h1.9c0.5,0,0.8-0.4,0.8-0.8v-18.1c0-0.5-0.4-0.8-0.8-0.8h-1.9
								C206.3,146.8,205.9,147.2,205.9,147.7z"/>
							<path class="st20" d="M198.6,154.5v11.3c0,0.5,0.4,0.8,0.8,0.8h1.9c0.5,0,0.8-0.4,0.8-0.8v-11.3c0-0.5-0.4-0.8-0.8-0.8h-1.9
								C198.9,153.6,198.6,154,198.6,154.5z"/>
							<path class="st20" d="M190.4,147.7v18.1c0,0.5,0.4,0.8,0.8,0.8h1.9c0.5,0,0.8-0.4,0.8-0.8v-18.1c0-0.5-0.4-0.8-0.8-0.8h-1.9
								C190.8,146.8,190.4,147.2,190.4,147.7z"/>
							<path class="st20" d="M183.1,154.5v11.3c0,0.5,0.4,0.8,0.8,0.8h1.9c0.5,0,0.8-0.4,0.8-0.8v-11.3c0-0.5-0.4-0.8-0.8-0.8h-1.9
								C183.5,153.6,183.1,154,183.1,154.5z"/>
						</g>
						<path class="st21" d="M225.2,136.9h13.3c0.2,0,0.4-0.2,0.4-0.4v-1c0-0.2-0.2-0.4-0.4-0.4h-13.3c-0.2,0-0.4,0.2-0.4,0.4v1
							C224.8,136.8,225,136.9,225.2,136.9z"/>
						<path class="st21" d="M229.8,143h8.7c0.2,0,0.4-0.2,0.4-0.4v-1c0-0.2-0.2-0.4-0.4-0.4h-8.7c-0.2,0-0.4,0.2-0.4,0.4v1
							C229.4,142.8,229.6,143,229.8,143z"/>
					</g>
				</g>
				<g>
					<path class="st0" d="M234.9,258.3h82.5c0.5,0,0.9-0.4,0.9-0.9v-63.1c0-1.6-1.3-2.9-2.9-2.9h-77.1c-2.4,0-4.4,2-4.4,4.4v61.7
						C233.9,257.9,234.3,258.3,234.9,258.3z"/>
					<path class="st22" d="M286.1,253.1h24c1.1,0,2.1-0.9,2.1-2.1v-9.8c0-1.1-0.9-2.1-2.1-2.1h-24c-1.1,0-2.1,0.9-2.1,2.1v9.8
						C284.1,252.1,285,253.1,286.1,253.1z"/>
					<g class="st23">
						<path class="st21" d="M270.7,202.3H311c0.7,0,1.3-0.6,1.3-1.3v0c0-0.7-0.6-1.3-1.3-1.3h-40.3c-0.7,0-1.3,0.6-1.3,1.3l0,0
							C269.4,201.7,270,202.3,270.7,202.3z"/>
						<path class="st21" d="M270.7,207.4H311c0.7,0,1.3-0.6,1.3-1.3l0,0c0-0.7-0.6-1.3-1.3-1.3h-40.3c-0.7,0-1.3,0.6-1.3,1.3l0,0
							C269.4,206.9,270,207.4,270.7,207.4z"/>
						<path class="st21" d="M270.7,212.6H311c0.7,0,1.3-0.6,1.3-1.3l0,0c0-0.7-0.6-1.3-1.3-1.3h-40.3c-0.7,0-1.3,0.6-1.3,1.3v0
							C269.4,212,270,212.6,270.7,212.6z"/>
						<path class="st21" d="M270.7,217.8H311c0.7,0,1.3-0.6,1.3-1.3l0,0c0-0.7-0.6-1.3-1.3-1.3h-40.3c-0.7,0-1.3,0.6-1.3,1.3l0,0
							C269.4,217.2,270,217.8,270.7,217.8z"/>
						<path class="st21" d="M270.7,222.9H311c0.7,0,1.3-0.6,1.3-1.3l0,0c0-0.7-0.6-1.3-1.3-1.3h-40.3c-0.7,0-1.3,0.6-1.3,1.3l0,0
							C269.4,222.4,270,222.9,270.7,222.9z"/>
						<path class="st21" d="M277,227.3h34c0.7,0,1.3-0.6,1.3-1.3l0,0c0-0.7-0.6-1.3-1.3-1.3h-34c-0.7,0-1.3,0.6-1.3,1.3l0,0
							C275.7,226.7,276.3,227.3,277,227.3z"/>
					</g>
					<g>
						<polygon class="st3" points="261.6,250 261.1,251 260,251.2 260.8,252 260.6,253.1 261.6,252.5 262.6,253.1 262.4,252 
							263.2,251.2 262.1,251 						"/>
						<polygon class="st3" points="256.6,250 256.1,251 255,251.2 255.8,252 255.6,253.1 256.6,252.5 257.6,253.1 257.4,252 
							258.2,251.2 257.1,251 						"/>
						<polygon class="st3" points="251.6,250 251.1,251 250,251.2 250.8,252 250.6,253.1 251.6,252.5 252.6,253.1 252.4,252 
							253.3,251.2 252.1,251 						"/>
						<polygon class="st3" points="246.7,250 246.2,251 245,251.2 245.9,252 245.7,253.1 246.7,252.5 247.7,253.1 247.5,252 
							248.3,251.2 247.2,251 						"/>
						<polygon class="st3" points="241.7,250 241.2,251 240.1,251.2 240.9,252 240.7,253.1 241.7,252.5 242.7,253.1 242.5,252 
							243.3,251.2 242.2,251 						"/>
					</g>
					<path class="st24" d="M238.8,189.1h74.7c2.7,0,4.9,2.2,4.9,4.9v2.3h-84.4V194C233.9,191.3,236.1,189.1,238.8,189.1z"/>
					<g>
						<circle class="st0" cx="247.2" cy="192.7" r="0.8"/>
						<circle class="st0" cx="243.4" cy="192.7" r="0.8"/>
						<circle class="st0" cx="239.5" cy="192.7" r="0.8"/>
					</g>
					<path class="st21" d="M238,228.1h26.4c0.5,0,0.8-0.4,0.8-0.8v-26.7c0-0.5-0.4-0.8-0.8-0.8H238c-0.5,0-0.8,0.4-0.8,0.8v26.7
						C237.2,227.7,237.5,228.1,238,228.1z"/>
					<g>
						<g>
							<path class="st0" d="M241.7,213.9c0-5.4,4.4-9.8,9.8-9.8c5.4,0,9.8,4.4,9.8,9.8s-4.4,9.8-9.8,9.8
								C246.1,223.8,241.7,219.4,241.7,213.9z M242.7,213.9c0,4.9,4,8.8,8.8,8.8c4.9,0,8.8-4,8.8-8.8c0-4.9-4-8.8-8.8-8.8
								C246.7,205.1,242.7,209.1,242.7,213.9z"/>
						</g>
						<g>
							<path class="st0" d="M247.1,213.9c0-5.5,1.9-9.8,4.4-9.8c2.5,0,4.4,4.3,4.4,9.8c0,5.5-1.9,9.8-4.4,9.8
								C249.1,223.8,247.1,219.4,247.1,213.9z M248.1,213.9c0,5.2,1.8,8.8,3.4,8.8c1.6,0,3.4-3.6,3.4-8.8c0-5.2-1.8-8.8-3.4-8.8
								C249.9,205.1,248.1,208.7,248.1,213.9z"/>
						</g>
						<g>
							<rect x="242.2" y="213.4" class="st0" width="18.7" height="1"/>
						</g>
						<g>
							<g>
								<path class="st0" d="M251.5,210.3c5.4,0,7.3-1.9,7.4-2l-0.7-0.7l0.4,0.3l-0.4-0.4c0,0-1.7,1.7-6.7,1.7
									c-4.9,0-6.7-1.7-6.7-1.7l-0.7,0.7C244.2,208.4,246.1,210.3,251.5,210.3z"/>
							</g>
							<g>
								<path class="st0" d="M258.2,220.3l0.7-0.7c-0.1-0.1-2-2-7.4-2c-5.4,0-7.3,1.9-7.4,2l0.7,0.7c0,0,1.7-1.7,6.7-1.7
									C256.5,218.6,258.2,220.2,258.2,220.3z"/>
							</g>
						</g>
					</g>
				</g>
				<g>
					
						<ellipse transform="matrix(0.926 -0.3776 0.3776 0.926 -31.4282 141.3258)" class="st0" cx="344.7" cy="150.8" rx="33.4" ry="33.4"/>
					
						<ellipse transform="matrix(0.1611 -0.9869 0.9869 0.1611 140.3407 466.7516)" class="st25" cx="344.7" cy="150.8" rx="28.4" ry="28.4"/>
					<path class="st3" d="M352.5,149.8c2.2-0.8,3.5-3,3.5-5.8c0-3.9-2.6-6.4-6.8-6.7v-3.4H345v3.4h-1.9v-3.4h-4.2v3.4h-3.1v5.4h3
						v15.7h-3v5.4h3.1v3.9h4.2v-3.9h1.9v3.9h4.2v-3.9c4.6-0.2,7.5-3,7.5-7.4C356.8,153.1,355.1,150.5,352.5,149.8z M344.1,142.7h4.1
						c0.4,0,0.8,0.1,1.1,0.2c0.8,0.3,1.3,1.1,1.3,2.3c0,1.2-0.5,2.1-1.3,2.4c-0.3,0.1-0.7,0.2-1.1,0.2h-4.1V142.7z M349.3,158.4
						c-0.3,0.1-0.7,0.1-1.1,0.1l-4.1,0v-5.6h4.1c0.4,0,0.7,0,1.1,0.1c1.2,0.3,2,1.3,2,2.6C351.2,157,350.5,158,349.3,158.4z"/>
				</g>
				<g>
					<g>
						
							<ellipse transform="matrix(0.9872 -0.1597 0.1597 0.9872 -17.8051 71.0618)" class="st0" cx="433.1" cy="146.3" rx="26.4" ry="26.4"/>
						<polygon class="st0" points="428.3,167.9 417.6,179.5 419,162.7 						"/>
					</g>
					<path class="st21" d="M421.6,149c0.3,1.2,0.8,2.4,1.4,3.4l-2.7,2.7c1.1,1.5,2.4,2.9,3.9,3.9l2.7-2.7c1,0.6,2.2,1.1,3.4,1.4v3.8
						c0.9,0.2,1.8,0.3,2.8,0.3c0.9,0,1.9-0.1,2.8-0.3v-3.8c1.2-0.3,2.4-0.8,3.4-1.4l2.7,2.7c1.5-1.1,2.9-2.4,3.9-3.9l-2.7-2.7
						c0.6-1,1.1-2.2,1.4-3.4h3.8c0.2-0.9,0.3-1.8,0.3-2.8c0-0.9-0.1-1.9-0.3-2.8h-3.8c-0.3-1.2-0.8-2.4-1.4-3.4l2.7-2.7
						c-1.1-1.5-2.4-2.9-3.9-3.9l-2.7,2.7c-1-0.6-2.2-1.1-3.4-1.4v-3.8c-0.9-0.2-1.8-0.3-2.8-0.3c-0.9,0-1.9,0.1-2.8,0.3v3.8
						c-1.2,0.3-2.4,0.8-3.4,1.4l-2.7-2.7c-1.5,1.1-2.9,2.4-3.9,3.9l2.7,2.7c-0.6,1-1.1,2.2-1.4,3.4h-3.8c-0.2,0.9-0.3,1.8-0.3,2.8
						c0,0.9,0.1,1.9,0.3,2.8H421.6z M429.4,146.3c0-2,1.6-3.7,3.7-3.7c2,0,3.7,1.6,3.7,3.7c0,2-1.6,3.7-3.7,3.7
						C431.1,149.9,429.4,148.3,429.4,146.3z"/>
				</g>
			</g>
		</g>
	</g>
</g>
<g id="DESIGNED_BY_FREEPIK">
</g>
</svg>
