<?xml version="1.0" encoding="utf-8"?>
<!-- Generator: Adobe Illustrator 16.0.0, SVG Export Plug-In . SVG Version: 6.00 Build 0)  -->
<!DOCTYPE svg PUBLIC "-//W3C//DTD SVG 1.1//EN" "http://www.w3.org/Graphics/SVG/1.1/DTD/svg11.dtd">
<svg version="1.1" id="Layer_1" xmlns="http://www.w3.org/2000/svg" xmlns:xlink="http://www.w3.org/1999/xlink" x="0px" y="0px"
	 width="555px" height="555px" viewBox="0 0 555 555" enable-background="new 0 0 555 555" xml:space="preserve">
<image display="none" overflow="visible" width="1908" height="948" xlink:href="banner.jpg"  transform="matrix(1 0 0 1 -999 -217)">
</image>
<g>
	<path fill="#F8F8F8" d="M278,43c31.743,0,62.515,6.208,91.46,18.451c27.979,11.834,53.115,28.784,74.71,50.379
		c21.596,21.595,38.545,46.731,50.38,74.71C506.792,215.486,513,246.257,513,278s-6.208,62.516-18.45,91.46
		c-11.835,27.979-28.784,53.115-50.38,74.71c-21.595,21.596-46.73,38.545-74.71,50.38C340.515,506.792,309.743,513,278,513
		s-62.514-6.208-91.46-18.45c-27.979-11.835-53.115-28.784-74.71-50.38c-21.595-21.595-38.545-46.73-50.379-74.71
		C49.208,340.516,43,309.743,43,278s6.208-62.514,18.451-91.46c11.834-27.979,28.784-53.115,50.379-74.71
		c21.595-21.595,46.731-38.545,74.71-50.379C215.486,49.208,246.257,43,278,43 M278,2C125.57,2,2,125.57,2,278
		c0,152.431,123.57,276,276,276c152.431,0,276-123.569,276-276C554,125.57,430.431,2,278,2L278,2z"/>
</g>
<g>
	<path fill="#F8F8F8" d="M278,123c41.669,0,80.844,16.227,110.309,45.691C417.773,198.156,434,237.331,434,279
		s-16.227,80.844-45.691,110.309C358.845,418.774,319.669,435,278,435s-80.844-16.227-110.309-45.691
		C138.227,359.844,122,320.669,122,279s16.227-80.844,45.691-110.309C197.156,139.227,236.331,123,278,123 M278,82
		C169.2,82,81,170.2,81,279s88.2,197,197,197s197-88.2,197-197S386.8,82,278,82L278,82z"/>
</g>
<g display="none">
</g>
<g>
	<path fill="#759BE0" d="M268.694,399.379L256.93,539.258c0,0-1.232,8.479,5.075,8.495c10.37,0.024,51.616,0,51.616,0
		s-7.805-1.766-7.711-5.737c0.112-4.681,13.751-143.96,13.751-143.96L268.694,399.379z"/>
	<path fill="#AEC3FF" d="M316.967,545.215c-2.04,0.006-41.435,0.13-51.533,0c-4.401-0.055-5.173-3.913-5.209-6.411
		c-0.018-1.196,0.134-2.082,0.134-2.082l0.306-3.635l0.78-9.268l0.688-8.187l0.885-10.52l0.746-8.879l8.359-99.395l50.965-1.322
		c0,0-5.743,58.287-9.807,100.717c-0.454,4.727-0.886,9.26-1.284,13.491c-0.13,1.351-0.253,2.671-0.374,3.957
		c-0.378,4.015-0.722,7.701-1.021,10.956c-0.158,1.715-0.304,3.309-0.436,4.77c-0.519,5.722-0.822,9.376-0.826,10.07
		c-0.002,0.405,0.032,0.782,0.099,1.132C310.274,545.069,316.201,545.215,316.967,545.215z"/>
	<polygon fill="#AEC3FF" points="144.921,323.262 173.577,438.365 177.5,454.129 190.847,507.741 438.8,507.741 389.608,323.262 	
		"/>
	<polygon fill="#759BE0" points="144.921,323.262 140.95,324.586 185.567,511.745 190.847,507.741 	"/>
	<polygon fill="#759BE0" points="185.567,511.745 431.994,511.745 438.8,507.741 190.847,507.741 	"/>
	<rect x="272.105" y="545.271" fill="#AEC3FF" width="53.354" height="2.535"/>
	<polygon opacity="0.7" fill="#759BE0" points="311.896,511.744 311.622,513.683 261.444,523.819 262.132,515.633 262.46,511.744 	
		"/>
	<path fill="#94B0ED" d="M316.967,545.215c-2.04,0.006-41.435,0.13-51.533,0c-4.401-0.055-5.173-3.913-5.209-6.411l49.941-9.396
		c-0.519,5.722-0.822,9.376-0.826,10.07c-0.002,0.405,0.032,0.782,0.099,1.132C310.274,545.069,316.201,545.215,316.967,545.215z"/>
	<polygon fill="#94B0ED" points="299.769,470.396 190.847,507.741 177.5,454.129 	"/>
	<polygon fill="#D2E0FF" points="144.921,323.262 389.608,323.262 429.008,471.525 181.845,471.525 	"/>
	<polygon opacity="0.5" fill="#AEC3FF" points="154.783,328.529 189.932,463.588 417.157,463.588 381.621,330.084 	"/>
	<rect x="237.035" y="409.354" fill="#ED7D2B" width="85.948" height="54.23"/>
	<rect x="280.011" y="409.355" fill="#F99746" width="85.945" height="54.229"/>
	<polygon fill="#E06D20" points="280.01,417.365 261.893,435.481 237.086,435.481 237.086,409.354 280.01,409.354 	"/>
	<polygon fill="#F99746" points="237.036,409.354 217.713,428 260.713,428 280.01,409.354 	"/>
	<polygon fill="#ED7D2B" points="365.956,411.276 280.01,409.355 280.01,416.225 280.009,416.225 280.009,417.348 295.989,434.869 
		365.955,434.869 365.955,417.428 365.513,416.908 365.956,416.908 	"/>
	<polygon fill="#F99746" points="280.01,409.354 297.016,428 381.825,428 365.956,409.354 	"/>
	<path fill="#2C3A64" d="M130.243,402.492c0,0,0.598-6.514-6.679-6.514c0,0,2.205,0.599,3.345,1.795c0,0-4.641-2.725-9.692,1.462
		c-5.05,4.187-1.912,14.687-3.448,16.681c-1.536,1.993-7.517,2.393-6.786,8.838c0.731,6.446,18.982,14.52,17.81,19.854
		c0,0,7.152-10.514,2.038-15.313c0,0,2.493,2.349,2.747,5.139c0,0,0.677-5.449-2.791-7.191c-3.069-1.543-5.583-7.184-5.316-8.191
		C121.737,418.042,130.243,402.492,130.243,402.492z"/>
	<path fill="#FFB27D" d="M123.08,433.76c0,0,5.436,22.49,10.772,26.985c3.208,2.702,12.745,8.904,12.745,8.904l-3.967,1.439
		c0,0-13.228-4.468-16.19-7.949c-2.961-3.481-11.07-20.93-11.07-20.93L123.08,433.76z"/>
	<g>
		<path fill="#F99746" d="M154.37,477.869l-1.277-3.164c-1.37-3.392-4.662-5.613-8.32-5.613h-23.566v14.954v63.841h97.486v-63.841
			h-55.166C159.5,484.046,155.877,481.602,154.37,477.869z"/>
		<g>
			<path fill="#FFFFFF" d="M135.91,517.008v-5.68l19.921-8.727v5.804l-13.912,5.722l13.912,5.721v5.886L135.91,517.008z"/>
			<path fill="#FFFFFF" d="M176.534,495.811h5.31l-18.233,38.114h-5.31L176.534,495.811z"/>
			<path fill="#FFFFFF" d="M203.987,511.328v5.68l-19.921,8.726v-5.803l13.912-5.722l-13.912-5.722v-5.886L203.987,511.328z"/>
		</g>
	</g>
	<path fill="#2F539B" d="M71.988,473.271c0.048,0.086,0.099,0.175,0.149,0.264c1.19,2.067,3.919,7.135,6.924,12.679
		c1.422,2.63,2.911,5.368,4.323,7.944c2.433,4.447,4.646,8.406,5.938,10.5c1.313,2.128,2.281,3.622,2.672,4.221
		c0.003,0.003,0.003,0.003,0.003,0.003c0.118,0.185,0.143,0.4,0.127,0.617c-0.137,1.876-0.099,3.74,0.086,5.575
		c1.813,18.037,13.976,27.703,13.976,27.703l3.616,0.534c0,0-5.118-18.959-6.625-29.678c-0.254-1.816-0.366-3.289-0.277-4.25
		c0.267-2.792-0.229-6.892-1.167-11.6c-1.67-8.364-4.733-18.632-7.395-26.851c-0.169-0.524-5.254-18.921-5.254-18.921
		c-4.269,3.73-19.838,5.27-19.838,5.27S66.607,463.699,71.988,473.271z"/>
	<path fill="#233862" d="M117.393,547.887h-15.094c0,0-0.361-2.301,0.427-4.045c0.755-1.675,1.832-1.729,0.138-4.354
		c0.959,0.987,4.042,1.396,6.224,1.103c0.268,0.434,1.724,3.341,2.617,3.983C112.691,545.282,117.089,545.03,117.393,547.887z"/>
	<path fill="#233862" d="M71.988,473.271c0.048,0.086,0.099,0.175,0.149,0.264c1.19,2.067,7.623,13.95,10.629,19.494
		c-3.483-14.329-1.061-28.657-1.061-28.657L71.988,473.271z"/>
	<path fill="#2C3A64" d="M128.185,401.576c0.099-0.396-8.62,3.94-9.063,4.431c-4.089,4.536-2.923,10.455-0.583,10.512
		c1.501,0.037,1.21,2.532,1.21,2.532l16.718-7.072C136.466,411.979,134.454,400.24,128.185,401.576z"/>
	<path fill="#F99746" d="M122.566,430.383c0,0,2.544,5.082,2.227,9.207c0,0-3.068,4.842-11.024,6.068
		C113.77,445.658,120.61,430.379,122.566,430.383z"/>
	<path fill="#2F539B" d="M83.755,458.405l0.051-2.823c-5.624,0.709-19.393-6.721-19.393-6.721s-5.884,3.914-6.689,15.09
		c-0.393,5.455-2.88,28.525-3.155,35.414c-0.101,2.497-0.134,4.279-0.145,4.991c0.001,0.003,0.001,0.005,0,0.007
		c-0.003,0.217-0.105,0.409-0.239,0.581c-1.164,1.479-2.173,3.046-3.048,4.671c-8.582,15.968-4.094,37.665-4.094,37.665l1.993-0.507
		c0,0,7.257-22.492,12-32.222c0.805-1.65,1.536-2.933,2.148-3.677c1.783-2.165,3.664-5.844,5.517-10.271
		C72.204,492.235,83.755,458.405,83.755,458.405z"/>
	<path fill="#233862" d="M59.045,547.887H43.952c0,0-0.362-2.301,0.427-4.045c0.755-1.675,1.938-2.437,1.655-4.463
		c0.959,0.988,2.522,2.094,4.704,1.801c0.268,0.433,1.726,2.752,2.619,3.395C54.344,545.282,58.742,545.03,59.045,547.887z"/>
	<path fill="#F99746" d="M112.751,448.898c-2.027,0.346,0.331,1.957-2.458,2.261c-3.969,0.433-8.066,0.729-10.213,1.585
		c-0.783,0.313-1.307,0.698-1.47,1.191c-0.93,2.798-6.823,7.605-6.823,7.605c-26.282-1.196-27.975-12.91-27.975-12.91
		c17.058-16.566,31.568-25.596,43.562-26.713c2.919-0.272,6.853,0.094,8.699,0.914c4.194,1.868,6.493,7.551,6.493,7.551
		S120.454,447.585,112.751,448.898z"/>
	<path fill="#ED7D2B" d="M110.293,451.159c-3.969,0.433-8.066,0.729-10.213,1.585c-0.877-13.106,5.309-22.967,5.309-22.967
		S109.424,446.199,110.293,451.159z"/>
	<path fill="#FFB27D" d="M113.717,427.559c0,0-9.98-0.545-11.754,5.722c-1.773,6.266,3.327,31.276,4.427,33.858
		c2.001,4.699,11.743,18.113,11.743,18.113l3.583-1.092c0,0-6.496-20.491-7.946-22.52
		C111.493,458.458,116.705,430.285,113.717,427.559z"/>
	<path fill="#FFB27D" d="M121.716,484.16c0,0,0.185,1.589,0.856,2.409s2.625,2.806,2.659,3.967c0,0-0.099,0.517-0.517,0.422
		c-0.419-0.095-1.874-1.534-2.62-1.431c0,0,0.398,2.329,0.793,2.983c0.395,0.656,0.081,3.438-0.156,4.004
		c-0.237,0.565-3.149-3.039-4.346-4.648c-1.197-1.61-0.019-8.143-0.019-8.143L121.716,484.16z"/>
	<path fill="#F99746" d="M99.996,441.659c0.026,0.147,9.444,1.733,15.335-1.257c0,0,4.922-15.418-2.111-14.68
		c-7.033,0.737-11.198,2.952-11.375,6.319S99.996,441.659,99.996,441.659z"/>
	<path fill="#FFB27D" d="M115.85,423.914c0.75,2.35,3.251,9.046,6.717,6.469c-0.117-0.499,0.611-1.953,1.47-3.429
		c1.097-1.886,2.405-3.813,2.405-3.813l-5.649-4.949l-0.337-0.295c-1.478,2.579-2.93,3.82-4.202,4.77
		C115.866,422.955,115.703,423.454,115.85,423.914z"/>
	<path fill="#ED985F" d="M126.44,423.143c0,0-1.306,1.924-2.403,3.812c-3.511-2.164-3.515-6.511-3.244-8.763L126.44,423.143z"/>
	<path fill="#FFB27D" d="M126.597,425.623c0,0-8.525-4.744-5.489-10.008c3.036-5.264,3.98-9.42,9.552-6.615
		c5.571,2.807,5.461,5.42,4.875,7.424C134.948,418.427,128.893,426.721,126.597,425.623z"/>
	<path fill="#2C3A64" d="M136.974,413.354c-0.39-2.337-1.578-2.561-2.405-2.404c-3.148-5.207-8.292-3.174-8.292-3.174
		c-2.748,3.447-6.72,4.035-6.72,4.035s0.99,1.841,5.065,2.98c1.245,0.348,2.658,0.137,4.021-0.321
		c-2.828,1.576-5.785,2.181-5.785,2.181c5.372,0.491,10.482-4.42,11.012-4.945c0.248,0.762,0.682,2.355,0.422,3.52
		c-0.354,1.583-1.758,4.449-0.9,4.82C133.393,420.045,137.56,416.857,136.974,413.354z"/>
	<path fill="#FFB27D" d="M148.157,469.66c0,0-2.379,1.784-0.586,2.95s4.994,1.481,5.007,0.717
		C152.622,470.758,151.34,468.932,148.157,469.66z"/>
	<path fill="#F99746" d="M182.59,371.723c-0.277-1.143,0.224-2.038,1.282-2.04c1.052-0.002,1.978,0.881,2.257,2.034
		c0.277,1.143-0.218,2.039-1.282,2.041S182.869,372.877,182.59,371.723z M185.23,371.719c-0.173-0.715-0.656-1.255-1.18-1.254
		c-0.523,0.001-0.738,0.525-0.561,1.257c0.174,0.721,0.651,1.255,1.18,1.254C185.199,372.975,185.406,372.445,185.23,371.719z"/>
	<path fill="#94B0ED" d="M167.291,342.113l-0.653,0.17l-0.354-0.709l1.062-0.339l0.598-0.001l0.961,3.968l-0.865,0.002
		L167.291,342.113z"/>
	<path fill="#94B0ED" d="M170.396,343.229c-0.277-1.143,0.224-2.038,1.282-2.04c1.053-0.001,1.979,0.881,2.258,2.034
		c0.276,1.143-0.218,2.039-1.282,2.041S170.675,344.383,170.396,343.229z M173.037,343.225c-0.173-0.715-0.657-1.254-1.181-1.254
		c-0.523,0.001-0.738,0.525-0.561,1.257c0.175,0.721,0.651,1.255,1.181,1.254C173.005,344.48,173.212,343.951,173.037,343.225z"/>
	<path fill="#94B0ED" d="M240.125,341.981l-0.653,0.17l-0.354-0.709l1.062-0.339l0.598-0.002l0.961,3.969l-0.865,0.001
		L240.125,341.981z"/>
	<path fill="#94B0ED" d="M243.23,343.097c-0.277-1.143,0.223-2.039,1.282-2.04c1.053-0.002,1.978,0.881,2.258,2.034
		c0.276,1.143-0.218,2.038-1.282,2.04C244.423,345.133,243.509,344.25,243.23,343.097z M245.87,343.092
		c-0.173-0.715-0.657-1.254-1.18-1.254c-0.524,0.002-0.738,0.525-0.561,1.258c0.174,0.721,0.651,1.254,1.18,1.253
		S246.046,343.818,245.87,343.092z"/>
	<path fill="#94B0ED" d="M248.522,343.088c-0.277-1.143,0.224-2.039,1.282-2.041c1.052-0.002,1.978,0.881,2.257,2.035
		c0.276,1.143-0.218,2.039-1.282,2.04C249.715,345.124,248.801,344.241,248.522,343.088z M251.163,343.083
		c-0.173-0.715-0.657-1.255-1.181-1.253c-0.523,0-0.738,0.524-0.561,1.256c0.174,0.721,0.651,1.255,1.18,1.254
		C251.13,344.339,251.338,343.81,251.163,343.083z"/>
	<path fill="#94B0ED" d="M275.588,343.097c-0.276-1.143,0.224-2.039,1.282-2.04c1.053-0.002,1.978,0.881,2.257,2.034
		c0.277,1.143-0.218,2.038-1.281,2.04C276.781,345.133,275.867,344.25,275.588,343.097z M278.229,343.092
		c-0.173-0.715-0.657-1.254-1.181-1.254c-0.523,0.002-0.738,0.525-0.561,1.258c0.174,0.721,0.65,1.254,1.18,1.253
		S278.404,343.818,278.229,343.092z"/>
	<path fill="#94B0ED" d="M280.88,343.088c-0.276-1.143,0.224-2.039,1.282-2.041c1.053-0.002,1.978,0.881,2.258,2.035
		c0.276,1.143-0.219,2.039-1.282,2.04C282.073,345.124,281.159,344.241,280.88,343.088z M283.521,343.083
		c-0.173-0.715-0.657-1.255-1.181-1.253c-0.522,0-0.738,0.524-0.561,1.256c0.175,0.721,0.651,1.255,1.181,1.254
		C283.488,344.339,283.696,343.81,283.521,343.083z"/>
	<path fill="#94B0ED" d="M286.172,343.078c-0.276-1.143,0.225-2.038,1.282-2.04c1.053-0.001,1.979,0.881,2.258,2.034
		c0.276,1.143-0.218,2.039-1.282,2.041S286.452,344.232,286.172,343.078z M288.813,343.074c-0.173-0.715-0.656-1.254-1.181-1.254
		c-0.523,0.001-0.737,0.525-0.561,1.257c0.175,0.721,0.651,1.255,1.18,1.254C288.781,344.33,288.988,343.801,288.813,343.074z"/>
	<path fill="#94B0ED" d="M322.964,342.988c-0.276-1.143,0.224-2.038,1.282-2.04c1.053-0.001,1.979,0.881,2.258,2.034
		c0.276,1.143-0.219,2.039-1.282,2.041S323.244,344.143,322.964,342.988z M325.604,342.984c-0.173-0.715-0.656-1.254-1.18-1.254
		c-0.523,0.001-0.739,0.525-0.562,1.257c0.175,0.721,0.651,1.255,1.18,1.254C325.573,344.24,325.781,343.711,325.604,342.984z"/>
	<path fill="#94B0ED" d="M328.029,342.98c-0.277-1.143,0.224-2.039,1.281-2.041c1.053-0.002,1.979,0.881,2.258,2.035
		c0.276,1.143-0.218,2.039-1.281,2.04C329.222,345.017,328.309,344.134,328.029,342.98z M330.67,342.977
		c-0.174-0.715-0.657-1.256-1.181-1.254c-0.523,0-0.738,0.524-0.562,1.256c0.175,0.721,0.651,1.255,1.181,1.254
		S330.845,343.701,330.67,342.977z"/>
	<path fill="#94B0ED" d="M333.538,342.971c-0.277-1.143,0.223-2.039,1.282-2.04c1.052-0.002,1.978,0.88,2.257,2.034
		c0.276,1.143-0.218,2.039-1.282,2.041S333.816,344.125,333.538,342.971z M336.178,342.967c-0.173-0.715-0.656-1.255-1.18-1.254
		c-0.524,0.001-0.738,0.525-0.562,1.257c0.175,0.72,0.651,1.255,1.181,1.253C336.146,344.223,336.354,343.692,336.178,342.967z"/>
	<path fill="#94B0ED" d="M342.534,342.956c-0.277-1.143,0.224-2.039,1.282-2.04c1.053-0.002,1.979,0.88,2.258,2.033
		c0.276,1.144-0.219,2.039-1.282,2.041C343.728,344.992,342.813,344.109,342.534,342.956z M345.175,342.951
		c-0.173-0.715-0.657-1.254-1.18-1.254c-0.524,0.002-0.739,0.525-0.562,1.258c0.174,0.72,0.65,1.254,1.181,1.253
		C345.143,344.207,345.351,343.678,345.175,342.951z"/>
	<path fill="#94B0ED" d="M348.233,341.826l-0.654,0.17l-0.354-0.709l1.062-0.34l0.598-0.001l0.961,3.968l-0.865,0.002
		L348.233,341.826z"/>
	<path fill="#94B0ED" d="M351.338,342.941c-0.277-1.143,0.224-2.039,1.281-2.041c1.053-0.002,1.979,0.881,2.258,2.035
		c0.276,1.143-0.218,2.038-1.281,2.04C352.531,344.978,351.617,344.095,351.338,342.941z M353.979,342.937
		c-0.173-0.715-0.657-1.255-1.181-1.253c-0.523,0-0.738,0.524-0.562,1.256c0.175,0.721,0.651,1.255,1.181,1.254
		S354.154,343.662,353.979,342.937z"/>
	<path fill="#94B0ED" d="M360.156,342.918c-0.276-1.143,0.224-2.039,1.282-2.041c1.053-0.002,1.979,0.881,2.257,2.034
		c0.277,1.143-0.218,2.039-1.281,2.04C361.35,344.953,360.436,344.07,360.156,342.918z M362.797,342.913
		c-0.173-0.715-0.656-1.255-1.181-1.254c-0.523,0.001-0.737,0.524-0.561,1.257c0.175,0.721,0.651,1.254,1.18,1.254
		C362.766,344.168,362.973,343.639,362.797,342.913z"/>
	<path fill="#94B0ED" d="M207.538,351.747c-0.276-1.144,0.224-2.039,1.282-2.041c1.053-0.001,1.978,0.881,2.257,2.034
		c0.277,1.143-0.218,2.039-1.282,2.041C208.731,353.783,207.817,352.9,207.538,351.747z M210.179,351.742
		c-0.173-0.715-0.657-1.254-1.18-1.254c-0.523,0.002-0.739,0.525-0.561,1.257c0.174,0.721,0.651,1.255,1.18,1.254
		S210.354,352.469,210.179,351.742z"/>
	<path fill="#94B0ED" d="M212.831,351.738c-0.277-1.143,0.224-2.039,1.282-2.041c1.052-0.002,1.978,0.881,2.257,2.035
		c0.276,1.143-0.218,2.038-1.282,2.04S213.11,352.892,212.831,351.738z M215.471,351.733c-0.173-0.715-0.657-1.255-1.18-1.254
		s-0.738,0.524-0.561,1.257c0.174,0.721,0.651,1.255,1.18,1.254C215.439,352.989,215.647,352.459,215.471,351.733z"/>
	<path fill="#94B0ED" d="M344.611,351.533c-0.277-1.143,0.224-2.039,1.282-2.041c1.053-0.002,1.978,0.881,2.257,2.035
		c0.277,1.143-0.218,2.038-1.282,2.04C345.805,353.568,344.891,352.687,344.611,351.533z M347.252,351.528
		c-0.174-0.715-0.657-1.255-1.181-1.254s-0.738,0.524-0.562,1.257c0.175,0.721,0.651,1.254,1.181,1.254
		C347.22,352.783,347.428,352.254,347.252,351.528z"/>
	<path fill="#94B0ED" d="M350.31,350.402l-0.653,0.17l-0.354-0.709l1.062-0.34h0.598l0.961,3.968l-0.865,0.001L350.31,350.402z"/>
	<path fill="#94B0ED" d="M353.414,351.518c-0.276-1.143,0.224-2.039,1.282-2.04c1.053-0.002,1.979,0.88,2.258,2.034
		c0.276,1.143-0.218,2.039-1.282,2.041S353.693,352.672,353.414,351.518z M356.055,351.514c-0.173-0.715-0.657-1.255-1.18-1.254
		c-0.523,0.001-0.738,0.525-0.562,1.257c0.175,0.72,0.651,1.255,1.181,1.253C356.022,352.77,356.23,352.239,356.055,351.514z"/>
	<path fill="#94B0ED" d="M372.818,351.477c-0.277-1.143,0.223-2.039,1.281-2.041c1.053-0.002,1.979,0.881,2.258,2.035
		c0.276,1.143-0.218,2.038-1.282,2.04S373.097,352.63,372.818,351.477z M375.458,351.472c-0.173-0.715-0.656-1.255-1.181-1.254
		c-0.522,0.001-0.737,0.525-0.561,1.257c0.175,0.721,0.651,1.255,1.181,1.254S375.634,352.197,375.458,351.472z"/>
	<path fill="#94B0ED" d="M378.516,350.346l-0.653,0.17l-0.354-0.709l1.063-0.339l0.597-0.001l0.961,3.968l-0.864,0.002
		L378.516,350.346z"/>
	<path fill="#94B0ED" d="M203.086,398.053c-0.276-1.143,0.224-2.039,1.282-2.041c1.053-0.002,1.978,0.881,2.257,2.035
		c0.277,1.143-0.218,2.038-1.282,2.04C204.279,400.088,203.365,399.206,203.086,398.053z M205.727,398.048
		c-0.173-0.715-0.657-1.255-1.18-1.254c-0.524,0.001-0.738,0.524-0.562,1.257c0.175,0.721,0.651,1.254,1.181,1.254
		C205.694,399.303,205.902,398.773,205.727,398.048z"/>
	<path fill="#94B0ED" d="M208.378,398.043c-0.276-1.143,0.224-2.039,1.282-2.04c1.053-0.002,1.978,0.88,2.258,2.034
		c0.276,1.143-0.218,2.039-1.282,2.041C209.571,400.08,208.658,399.197,208.378,398.043z M211.019,398.039
		c-0.173-0.715-0.657-1.255-1.181-1.254c-0.523,0-0.738,0.525-0.561,1.257c0.174,0.72,0.651,1.255,1.18,1.253
		C210.987,399.295,211.194,398.765,211.019,398.039z"/>
	<path fill="#94B0ED" d="M214.076,396.913l-0.653,0.17l-0.354-0.708l1.062-0.34l0.598-0.002l0.961,3.969l-0.865,0.002
		L214.076,396.913z"/>
	<path fill="#94B0ED" d="M222.474,398.02c-0.276-1.143,0.224-2.039,1.282-2.041c1.053-0.001,1.978,0.881,2.257,2.035
		c0.277,1.143-0.218,2.039-1.282,2.041C223.667,400.057,222.753,399.174,222.474,398.02z M225.114,398.016
		c-0.173-0.715-0.657-1.255-1.18-1.254c-0.523,0-0.738,0.524-0.561,1.256c0.174,0.721,0.651,1.255,1.18,1.254
		C225.083,399.271,225.29,398.741,225.114,398.016z"/>
	<path fill="#94B0ED" d="M227.766,398.011c-0.277-1.143,0.224-2.038,1.282-2.04c1.053-0.002,1.978,0.881,2.257,2.034
		c0.276,1.143-0.218,2.038-1.282,2.04S228.045,399.164,227.766,398.011z M230.406,398.006c-0.173-0.715-0.657-1.254-1.18-1.254
		c-0.523,0.002-0.738,0.525-0.561,1.258c0.175,0.72,0.651,1.254,1.181,1.253C230.375,399.262,230.583,398.732,230.406,398.006z"/>
	<path fill="#94B0ED" d="M233.059,398.002c-0.277-1.143,0.224-2.039,1.282-2.041c1.053-0.002,1.978,0.881,2.257,2.035
		c0.277,1.143-0.218,2.039-1.282,2.04C234.251,400.038,233.338,399.155,233.059,398.002z M235.699,397.997
		c-0.173-0.714-0.657-1.255-1.18-1.253c-0.524,0-0.738,0.524-0.561,1.256c0.174,0.721,0.651,1.255,1.18,1.254
		S235.875,398.723,235.699,397.997z"/>
	<path fill="#94B0ED" d="M299.127,398.053c-0.276-1.143,0.224-2.039,1.282-2.041c1.053-0.002,1.978,0.881,2.258,2.035
		c0.276,1.143-0.219,2.038-1.282,2.04C300.32,400.088,299.406,399.206,299.127,398.053z M301.768,398.048
		c-0.174-0.715-0.657-1.255-1.18-1.254c-0.524,0.001-0.739,0.524-0.563,1.257c0.175,0.721,0.651,1.254,1.181,1.254
		C301.735,399.303,301.943,398.773,301.768,398.048z"/>
	<path fill="#94B0ED" d="M304.419,398.043c-0.276-1.143,0.224-2.039,1.282-2.04c1.053-0.002,1.978,0.88,2.258,2.034
		c0.276,1.143-0.218,2.039-1.282,2.041S304.698,399.197,304.419,398.043z M307.06,398.039c-0.173-0.715-0.657-1.255-1.181-1.254
		c-0.522,0-0.738,0.525-0.561,1.257c0.175,0.72,0.65,1.255,1.181,1.253C307.027,399.295,307.235,398.765,307.06,398.039z"/>
	<path fill="#94B0ED" d="M310.117,396.913l-0.653,0.17l-0.354-0.708l1.062-0.34l0.598-0.002l0.961,3.969l-0.865,0.002
		L310.117,396.913z"/>
	<path fill="#94B0ED" d="M334.607,398.053c-0.276-1.143,0.224-2.039,1.282-2.041c1.052-0.002,1.978,0.881,2.257,2.035
		c0.276,1.143-0.218,2.038-1.281,2.04C335.801,400.088,334.887,399.206,334.607,398.053z M337.248,398.048
		c-0.173-0.715-0.657-1.255-1.181-1.254s-0.738,0.524-0.561,1.257c0.175,0.721,0.65,1.254,1.18,1.254
		C337.216,399.303,337.424,398.773,337.248,398.048z"/>
	<path fill="#94B0ED" d="M339.899,398.043c-0.276-1.143,0.224-2.039,1.282-2.04c1.053-0.002,1.979,0.88,2.257,2.034
		c0.277,1.143-0.218,2.039-1.281,2.041C341.093,400.08,340.179,399.197,339.899,398.043z M342.54,398.039
		c-0.173-0.715-0.656-1.255-1.181-1.254c-0.523,0-0.738,0.525-0.561,1.257c0.174,0.72,0.651,1.255,1.18,1.253
		C342.509,399.295,342.716,398.765,342.54,398.039z"/>
	<path fill="#94B0ED" d="M345.598,396.913l-0.653,0.17l-0.354-0.708l1.062-0.34l0.598-0.002l0.961,3.969l-0.865,0.002
		L345.598,396.913z"/>
	<path fill="#94B0ED" d="M318.515,398.02c-0.276-1.143,0.224-2.039,1.282-2.041c1.053-0.001,1.978,0.881,2.257,2.035
		c0.277,1.143-0.218,2.039-1.281,2.041C319.708,400.057,318.794,399.174,318.515,398.02z M321.155,398.016
		c-0.174-0.715-0.657-1.255-1.181-1.254c-0.523,0-0.738,0.524-0.561,1.256c0.175,0.721,0.65,1.255,1.18,1.254
		C321.123,399.271,321.331,398.741,321.155,398.016z"/>
	<path fill="#94B0ED" d="M323.807,398.011c-0.276-1.143,0.224-2.038,1.282-2.04c1.053-0.002,1.979,0.881,2.258,2.034
		c0.276,1.143-0.218,2.038-1.282,2.04S324.086,399.164,323.807,398.011z M326.447,398.006c-0.173-0.715-0.656-1.254-1.181-1.254
		c-0.522,0.002-0.737,0.525-0.561,1.258c0.175,0.72,0.651,1.254,1.181,1.253S326.623,398.732,326.447,398.006z"/>
	<path fill="#94B0ED" d="M329.1,398.002c-0.277-1.143,0.224-2.039,1.282-2.041c1.053-0.002,1.978,0.881,2.257,2.035
		c0.276,1.143-0.218,2.039-1.282,2.04C330.293,400.038,329.379,399.155,329.1,398.002z M331.74,397.997
		c-0.174-0.714-0.657-1.255-1.181-1.253c-0.524,0-0.738,0.524-0.561,1.256c0.174,0.721,0.65,1.255,1.18,1.254
		S331.916,398.723,331.74,397.997z"/>
	<path fill="#94B0ED" d="M251.158,397.912c-0.277-1.143,0.223-2.038,1.282-2.04c1.053-0.001,1.978,0.881,2.258,2.034
		c0.276,1.143-0.218,2.039-1.282,2.041C252.351,399.949,251.437,399.066,251.158,397.912z M253.798,397.908
		c-0.173-0.715-0.657-1.255-1.18-1.254s-0.738,0.525-0.561,1.257c0.174,0.721,0.651,1.255,1.18,1.254
		S253.974,398.635,253.798,397.908z"/>
	<path fill="#94B0ED" d="M256.856,396.783l-0.654,0.169l-0.354-0.708l1.062-0.34l0.598-0.002l0.96,3.969l-0.865,0.002
		L256.856,396.783z"/>
	<path fill="#94B0ED" d="M259.961,397.897c-0.276-1.142,0.224-2.038,1.282-2.04c1.053-0.002,1.978,0.881,2.257,2.034
		c0.277,1.144-0.218,2.039-1.282,2.04C261.154,399.934,260.24,399.052,259.961,397.897z M262.602,397.894
		c-0.173-0.715-0.657-1.255-1.181-1.254c-0.523,0.001-0.738,0.524-0.561,1.257c0.174,0.721,0.651,1.254,1.181,1.254
		C262.569,399.149,262.777,398.619,262.602,397.894z"/>
	<path fill="#94B0ED" d="M364.636,397.788c-0.276-1.143,0.224-2.039,1.282-2.041c1.053-0.001,1.978,0.881,2.257,2.035
		c0.277,1.143-0.218,2.038-1.281,2.04C365.829,399.824,364.915,398.941,364.636,397.788z M367.276,397.783
		c-0.173-0.715-0.657-1.254-1.181-1.254c-0.523,0.002-0.738,0.525-0.562,1.258c0.175,0.72,0.651,1.254,1.181,1.253
		S367.452,398.51,367.276,397.783z"/>
	<path fill="#94B0ED" d="M370.334,396.658l-0.653,0.17l-0.354-0.709l1.062-0.34l0.598-0.001l0.961,3.968l-0.865,0.002
		L370.334,396.658z"/>
	<path fill="#94B0ED" d="M373.438,397.773c-0.276-1.143,0.225-2.039,1.282-2.041c1.053-0.002,1.979,0.881,2.258,2.035
		c0.276,1.143-0.218,2.038-1.282,2.04C374.633,399.81,373.719,398.927,373.438,397.773z M376.079,397.77
		c-0.173-0.716-0.656-1.256-1.18-1.254c-0.524,0-0.738,0.524-0.562,1.256c0.175,0.721,0.651,1.254,1.181,1.254
		C376.048,399.024,376.255,398.494,376.079,397.77z"/>
	<path fill="#94B0ED" d="M171.78,360.653l-0.653,0.171l-0.354-0.709l1.062-0.34l0.598-0.002l0.96,3.969l-0.865,0.002L171.78,360.653
		z"/>
	<path fill="#94B0ED" d="M174.885,361.77c-0.277-1.143,0.224-2.039,1.282-2.041c1.052-0.002,1.978,0.881,2.257,2.035
		c0.276,1.143-0.218,2.038-1.282,2.04C176.079,363.805,175.165,362.923,174.885,361.77z M177.525,361.765
		c-0.173-0.715-0.657-1.255-1.18-1.254s-0.738,0.524-0.561,1.257c0.174,0.721,0.651,1.255,1.18,1.254
		S177.701,362.49,177.525,361.765z"/>
	<path fill="#94B0ED" d="M204.857,361.719c-0.276-1.143,0.224-2.039,1.282-2.041c1.053-0.002,1.978,0.881,2.257,2.035
		c0.277,1.143-0.218,2.039-1.282,2.04C206.051,363.755,205.137,362.873,204.857,361.719z M207.498,361.715
		c-0.173-0.716-0.657-1.256-1.18-1.254c-0.524,0-0.738,0.524-0.561,1.256c0.174,0.721,0.651,1.255,1.18,1.254
		C207.466,362.97,207.674,362.439,207.498,361.715z"/>
	<path fill="#94B0ED" d="M210.149,361.709c-0.276-1.143,0.224-2.038,1.282-2.04c1.053-0.001,1.978,0.881,2.257,2.034
		c0.277,1.143-0.218,2.039-1.282,2.041C211.343,363.746,210.429,362.863,210.149,361.709z M212.79,361.705
		c-0.173-0.715-0.657-1.254-1.18-1.254c-0.523,0.001-0.738,0.525-0.561,1.257c0.174,0.721,0.651,1.255,1.18,1.254
		S212.966,362.432,212.79,361.705z"/>
	<path fill="#94B0ED" d="M215.442,361.701c-0.277-1.143,0.224-2.039,1.282-2.041c1.053-0.002,1.978,0.881,2.257,2.035
		c0.276,1.143-0.218,2.038-1.282,2.04C216.635,363.736,215.721,362.854,215.442,361.701z M218.083,361.696
		c-0.173-0.715-0.657-1.255-1.181-1.254s-0.738,0.524-0.561,1.257c0.175,0.721,0.651,1.254,1.181,1.254
		C218.05,362.951,218.258,362.422,218.083,361.696z"/>
	<path fill="#94B0ED" d="M221.14,360.57l-0.653,0.17l-0.354-0.709l1.062-0.34h0.597l0.961,3.968l-0.865,0.001L221.14,360.57z"/>
	<path fill="#94B0ED" d="M224.68,360.564l-0.653,0.17l-0.354-0.709l1.062-0.34h0.598l0.961,3.968l-0.865,0.001L224.68,360.564z"/>
	<path fill="#94B0ED" d="M227.785,361.68c-0.277-1.143,0.224-2.039,1.282-2.041c1.053-0.001,1.978,0.881,2.257,2.035
		c0.277,1.143-0.218,2.039-1.282,2.041C228.978,363.717,228.064,362.834,227.785,361.68z M230.425,361.676
		c-0.173-0.715-0.657-1.255-1.18-1.254s-0.738,0.525-0.561,1.256c0.174,0.721,0.651,1.255,1.18,1.254
		C230.393,362.932,230.601,362.401,230.425,361.676z"/>
	<path fill="#F99746" d="M364.646,361.457c-0.276-1.143,0.224-2.039,1.282-2.04c1.053-0.002,1.979,0.88,2.258,2.034
		c0.276,1.143-0.219,2.039-1.282,2.041C365.839,363.494,364.925,362.611,364.646,361.457z M367.286,361.453
		c-0.173-0.715-0.656-1.255-1.181-1.254c-0.523,0-0.738,0.525-0.561,1.256c0.174,0.721,0.65,1.256,1.181,1.254
		C367.254,362.709,367.462,362.179,367.286,361.453z"/>
	<path fill="#F99746" d="M369.938,361.448c-0.277-1.143,0.223-2.038,1.281-2.04c1.053-0.002,1.979,0.881,2.258,2.034
		c0.276,1.143-0.219,2.038-1.282,2.04S370.218,362.602,369.938,361.448z M372.578,361.443c-0.173-0.715-0.656-1.254-1.18-1.253
		s-0.739,0.524-0.562,1.257c0.175,0.721,0.651,1.254,1.181,1.253S372.754,362.17,372.578,361.443z"/>
	<path fill="#94B0ED" d="M375.23,361.439c-0.277-1.143,0.224-2.039,1.282-2.041c1.053-0.001,1.978,0.881,2.257,2.035
		c0.277,1.143-0.218,2.039-1.282,2.04C376.424,363.476,375.51,362.594,375.23,361.439z M377.87,361.436
		c-0.173-0.715-0.656-1.256-1.18-1.254c-0.523,0-0.738,0.524-0.562,1.256c0.175,0.721,0.651,1.255,1.181,1.254
		C377.839,362.691,378.047,362.161,377.87,361.436z"/>
	<path fill="#94B0ED" d="M380.929,360.309l-0.653,0.171l-0.354-0.709l1.063-0.34l0.598-0.001l0.961,3.969l-0.865,0.001
		L380.929,360.309z"/>
	<path fill="#94B0ED" d="M174.192,370.617l-0.653,0.17l-0.354-0.709l1.062-0.34l0.598-0.001l0.961,3.968l-0.865,0.002
		L174.192,370.617z"/>
	<path fill="#94B0ED" d="M177.297,371.732c-0.276-1.143,0.224-2.039,1.282-2.041c1.053-0.002,1.978,0.881,2.257,2.035
		c0.277,1.143-0.218,2.038-1.282,2.04C178.491,373.769,177.577,372.886,177.297,371.732z M179.938,371.728
		c-0.173-0.715-0.657-1.255-1.181-1.253c-0.523,0-0.738,0.524-0.561,1.256c0.175,0.721,0.651,1.255,1.181,1.254
		S180.114,372.453,179.938,371.728z"/>
	<path fill="#94B0ED" d="M201.978,371.69c-0.277-1.143,0.224-2.038,1.282-2.04c1.053-0.002,1.978,0.881,2.257,2.034
		c0.277,1.143-0.218,2.038-1.282,2.04C203.171,373.727,202.257,372.844,201.978,371.69z M204.618,371.686
		c-0.173-0.715-0.657-1.254-1.181-1.253s-0.738,0.524-0.561,1.257c0.174,0.721,0.651,1.254,1.18,1.254
		C204.586,372.941,204.794,372.412,204.618,371.686z"/>
	<path fill="#94B0ED" d="M207.27,371.682c-0.277-1.143,0.223-2.039,1.282-2.041c1.052-0.002,1.978,0.881,2.257,2.035
		c0.276,1.143-0.218,2.039-1.282,2.041C208.463,373.718,207.549,372.836,207.27,371.682z M209.91,371.678
		c-0.173-0.715-0.657-1.256-1.18-1.254c-0.523,0-0.738,0.524-0.561,1.256c0.174,0.721,0.651,1.255,1.181,1.254
		C209.878,372.933,210.086,372.403,209.91,371.678z"/>
	<path fill="#F99746" d="M187.199,390.969c-0.276-1.143,0.224-2.039,1.282-2.041c1.053-0.002,1.978,0.881,2.257,2.035
		c0.277,1.143-0.218,2.039-1.282,2.041C188.392,393.005,187.478,392.123,187.199,390.969z M189.839,390.965
		c-0.173-0.715-0.657-1.255-1.18-1.254c-0.524,0-0.738,0.524-0.562,1.256c0.175,0.721,0.651,1.255,1.181,1.254
		C189.807,392.221,190.015,391.69,189.839,390.965z"/>
	<path fill="#F99746" d="M192.897,389.839l-0.653,0.169l-0.354-0.708l1.062-0.34l0.598-0.001l0.961,3.969l-0.865,0.001
		L192.897,389.839z"/>
	<path fill="#94B0ED" d="M176.389,379.899l-0.653,0.17l-0.354-0.709l1.062-0.339l0.598-0.002l0.961,3.969l-0.865,0.001
		L176.389,379.899z"/>
	<path fill="#94B0ED" d="M179.494,381.015c-0.277-1.143,0.224-2.039,1.282-2.04c1.053-0.002,1.978,0.88,2.257,2.034
		c0.277,1.143-0.218,2.038-1.282,2.04S179.773,382.168,179.494,381.015z M182.135,381.01c-0.173-0.715-0.657-1.254-1.181-1.254
		c-0.523,0.002-0.738,0.525-0.561,1.258c0.175,0.72,0.651,1.254,1.181,1.253C182.103,382.266,182.31,381.736,182.135,381.01z"/>
	<path fill="#94B0ED" d="M184.786,381.006c-0.276-1.143,0.224-2.039,1.282-2.041c1.053-0.002,1.978,0.881,2.258,2.035
		c0.276,1.143-0.218,2.038-1.282,2.04S185.066,382.159,184.786,381.006z M187.427,381.001c-0.173-0.715-0.657-1.255-1.18-1.253
		c-0.523,0-0.738,0.524-0.561,1.256c0.174,0.721,0.651,1.255,1.18,1.254S187.603,381.727,187.427,381.001z"/>
	<path fill="#94B0ED" d="M190.485,379.875l-0.653,0.17l-0.354-0.708l1.062-0.34l0.598-0.001l0.961,3.968l-0.865,0.002
		L190.485,379.875z"/>
	<path fill="#94B0ED" d="M193.59,380.99c-0.277-1.143,0.224-2.038,1.282-2.04c1.053-0.001,1.978,0.881,2.257,2.034
		c0.277,1.143-0.218,2.039-1.282,2.041C194.783,383.027,193.869,382.145,193.59,380.99z M196.23,380.986
		c-0.173-0.715-0.657-1.255-1.181-1.254c-0.523,0.002-0.738,0.525-0.561,1.257c0.174,0.721,0.651,1.255,1.18,1.254
		C196.198,382.242,196.406,381.713,196.23,380.986z"/>
	<path fill="#94B0ED" d="M198.882,380.982c-0.276-1.143,0.224-2.039,1.282-2.041c1.053-0.002,1.978,0.881,2.257,2.035
		c0.277,1.142-0.218,2.038-1.282,2.04C200.075,383.018,199.161,382.136,198.882,380.982z M201.522,380.978
		c-0.173-0.715-0.657-1.255-1.18-1.254s-0.738,0.524-0.562,1.257c0.175,0.721,0.651,1.255,1.181,1.254
		C201.491,382.232,201.698,381.703,201.522,380.978z"/>
	<path fill="#94B0ED" d="M204.174,380.973c-0.276-1.143,0.224-2.039,1.282-2.04c1.053-0.002,1.978,0.88,2.257,2.034
		c0.276,1.143-0.218,2.039-1.282,2.041S204.454,382.127,204.174,380.973z M206.815,380.969c-0.173-0.715-0.657-1.255-1.181-1.254
		s-0.738,0.525-0.561,1.257c0.175,0.72,0.651,1.255,1.181,1.253C206.783,382.225,206.99,381.694,206.815,380.969z"/>
	<path fill="#94B0ED" d="M209.467,380.964c-0.277-1.143,0.223-2.038,1.282-2.04c1.053-0.002,1.978,0.881,2.258,2.034
		c0.276,1.143-0.218,2.038-1.282,2.04S209.746,382.117,209.467,380.964z M212.107,380.959c-0.173-0.715-0.657-1.254-1.18-1.253
		c-0.524,0.001-0.738,0.524-0.561,1.257c0.174,0.721,0.651,1.254,1.18,1.254C212.075,382.215,212.283,381.686,212.107,380.959z"/>
	<path fill="#94B0ED" d="M214.759,380.955c-0.277-1.143,0.224-2.039,1.282-2.041c1.053-0.002,1.979,0.881,2.258,2.035
		c0.276,1.143-0.218,2.039-1.282,2.041C215.952,382.992,215.038,382.109,214.759,380.955z M217.399,380.951
		c-0.173-0.715-0.657-1.256-1.18-1.254c-0.523,0-0.738,0.524-0.561,1.256c0.174,0.721,0.651,1.255,1.18,1.254
		S217.575,381.677,217.399,380.951z"/>
	<path fill="#94B0ED" d="M220.051,380.946c-0.276-1.143,0.224-2.039,1.282-2.04c1.053-0.002,1.978,0.88,2.257,2.034
		c0.277,1.143-0.218,2.038-1.282,2.04C221.244,382.982,220.33,382.1,220.051,380.946z M222.691,380.941
		c-0.173-0.715-0.657-1.254-1.18-1.254c-0.523,0.002-0.738,0.525-0.561,1.257c0.174,0.721,0.651,1.255,1.18,1.254
		C222.659,382.197,222.867,381.668,222.691,380.941z"/>
	<path fill="#94B0ED" d="M225.749,379.816l-0.653,0.17l-0.354-0.709l1.062-0.34l0.597-0.001l0.961,3.968l-0.865,0.002
		L225.749,379.816z"/>
	<path fill="#94B0ED" d="M229.289,379.811l-0.653,0.17l-0.354-0.709l1.062-0.34l0.597-0.001l0.961,3.968l-0.865,0.002
		L229.289,379.811z"/>
	<path fill="#94B0ED" d="M232.394,380.926c-0.277-1.143,0.224-2.039,1.282-2.041c1.053-0.002,1.978,0.881,2.257,2.035
		c0.276,1.143-0.218,2.038-1.282,2.04S232.673,382.079,232.394,380.926z M235.034,380.921c-0.173-0.715-0.656-1.255-1.18-1.254
		c-0.523,0.001-0.738,0.525-0.561,1.257c0.174,0.721,0.651,1.255,1.18,1.254C235.002,382.177,235.21,381.646,235.034,380.921z"/>
	<path fill="#94B0ED" d="M178.802,389.862l-0.654,0.17l-0.354-0.709l1.062-0.339l0.598-0.002l0.96,3.969l-0.865,0.001
		L178.802,389.862z"/>
	<path fill="#94B0ED" d="M181.907,390.978c-0.277-1.143,0.224-2.038,1.282-2.04c1.053-0.002,1.979,0.881,2.257,2.034
		c0.277,1.143-0.218,2.038-1.282,2.04C183.1,393.014,182.186,392.131,181.907,390.978z M184.547,390.973
		c-0.173-0.715-0.657-1.254-1.181-1.254c-0.523,0.002-0.738,0.525-0.561,1.258c0.174,0.721,0.651,1.254,1.18,1.254
		C184.515,392.229,184.723,391.699,184.547,390.973z"/>
	<path fill="#94B0ED" d="M196.002,390.953c-0.277-1.142,0.224-2.038,1.282-2.039c1.052-0.002,1.978,0.88,2.257,2.034
		c0.276,1.143-0.218,2.038-1.282,2.04C197.195,392.99,196.282,392.107,196.002,390.953z M198.643,390.949
		c-0.173-0.715-0.657-1.254-1.18-1.254c-0.523,0.002-0.738,0.525-0.561,1.257c0.175,0.721,0.651,1.255,1.18,1.254
		S198.818,391.676,198.643,390.949z"/>
	<path fill="#94B0ED" d="M201.294,390.945c-0.277-1.143,0.224-2.039,1.282-2.041c1.053-0.002,1.978,0.881,2.257,2.035
		c0.276,1.143-0.218,2.038-1.282,2.04S201.574,392.099,201.294,390.945z M203.935,390.94c-0.173-0.715-0.657-1.255-1.181-1.253
		c-0.523,0-0.738,0.524-0.561,1.256c0.174,0.721,0.651,1.255,1.18,1.254C203.903,392.196,204.111,391.666,203.935,390.94z"/>
	<path fill="#94B0ED" d="M191.879,413.061c-0.277-1.143,0.224-2.039,1.282-2.041c1.053-0.002,1.978,0.881,2.257,2.034
		c0.277,1.144-0.218,2.039-1.282,2.04C193.072,415.096,192.158,414.214,191.879,413.061z M194.519,413.055
		c-0.173-0.714-0.657-1.254-1.18-1.253s-0.738,0.524-0.561,1.257c0.174,0.721,0.651,1.254,1.18,1.254
		C194.487,414.311,194.695,413.781,194.519,413.055z"/>
	<path fill="#94B0ED" d="M197.577,411.93l-0.653,0.17l-0.354-0.709l1.062-0.34h0.598l0.96,3.968l-0.865,0.001L197.577,411.93z"/>
	<path fill="#94B0ED" d="M183.481,411.953l-0.654,0.17l-0.354-0.709l1.062-0.339l0.598-0.001l0.96,3.968l-0.865,0.001
		L183.481,411.953z"/>
	<path fill="#94B0ED" d="M186.586,413.068c-0.277-1.143,0.224-2.038,1.282-2.04c1.053-0.002,1.978,0.881,2.257,2.034
		c0.276,1.143-0.218,2.039-1.282,2.041S186.866,414.223,186.586,413.068z M189.227,413.064c-0.173-0.715-0.657-1.254-1.181-1.254
		c-0.523,0.001-0.738,0.525-0.561,1.257c0.174,0.72,0.651,1.255,1.18,1.253C189.195,414.32,189.403,413.791,189.227,413.064z"/>
	<path fill="#F99746" d="M200.682,413.045c-0.276-1.143,0.224-2.039,1.282-2.041c1.053-0.001,1.978,0.881,2.257,2.035
		c0.276,1.143-0.218,2.039-1.282,2.041S200.961,414.199,200.682,413.045z M203.323,413.041c-0.173-0.715-0.657-1.255-1.181-1.254
		c-0.523,0-0.738,0.524-0.561,1.257c0.174,0.72,0.651,1.255,1.18,1.253C203.291,414.297,203.499,413.767,203.323,413.041z"/>
	<path fill="#F99746" d="M205.974,413.036c-0.277-1.143,0.224-2.038,1.282-2.04c1.053-0.002,1.978,0.881,2.257,2.034
		c0.277,1.143-0.218,2.038-1.282,2.04C207.167,415.072,206.254,414.189,205.974,413.036z M208.615,413.031
		c-0.173-0.715-0.657-1.254-1.181-1.254c-0.523,0.002-0.738,0.525-0.561,1.258c0.174,0.721,0.651,1.254,1.18,1.254
		C208.583,414.287,208.791,413.758,208.615,413.031z"/>
	<path fill="#94B0ED" d="M185.339,420.166c-0.276-1.143,0.224-2.039,1.282-2.041c1.053-0.002,1.978,0.881,2.257,2.035
		c0.277,1.143-0.218,2.039-1.282,2.041C186.533,422.202,185.619,421.32,185.339,420.166z M187.98,420.162
		c-0.173-0.716-0.657-1.256-1.18-1.254c-0.523,0-0.738,0.524-0.561,1.256c0.174,0.721,0.651,1.255,1.18,1.254
		S188.156,420.888,187.98,420.162z"/>
	<path fill="#94B0ED" d="M191.038,419.035l-0.654,0.171l-0.354-0.709l1.063-0.34l0.597-0.001l0.961,3.969l-0.865,0.001
		L191.038,419.035z"/>
	<path fill="#94B0ED" d="M194.143,420.151c-0.277-1.144,0.224-2.039,1.282-2.041c1.053-0.001,1.978,0.882,2.257,2.034
		c0.276,1.143-0.218,2.039-1.282,2.041C195.336,422.188,194.422,421.305,194.143,420.151z M196.784,420.146
		c-0.173-0.715-0.657-1.254-1.181-1.254c-0.523,0.002-0.738,0.525-0.561,1.258c0.175,0.72,0.651,1.254,1.181,1.253
		C196.751,421.402,196.959,420.873,196.784,420.146z"/>
	<path fill="#94B0ED" d="M199.435,420.143c-0.277-1.143,0.224-2.039,1.282-2.041c1.053-0.002,1.978,0.881,2.257,2.035
		c0.277,1.143-0.218,2.038-1.282,2.04C200.628,422.179,199.714,421.296,199.435,420.143z M202.076,420.138
		c-0.173-0.715-0.657-1.255-1.18-1.253c-0.524,0-0.738,0.524-0.561,1.256c0.174,0.721,0.651,1.254,1.18,1.254
		C202.044,421.394,202.251,420.863,202.076,420.138z"/>
	<path fill="#94B0ED" d="M206.587,390.936c-0.277-1.143,0.224-2.038,1.282-2.04c1.053-0.002,1.978,0.881,2.257,2.034
		c0.277,1.143-0.218,2.039-1.282,2.041C207.78,392.973,206.866,392.09,206.587,390.936z M209.227,390.932
		c-0.173-0.715-0.657-1.254-1.18-1.254c-0.523,0.001-0.738,0.525-0.561,1.257c0.174,0.721,0.651,1.255,1.18,1.254
		C209.195,392.188,209.403,391.658,209.227,390.932z"/>
	<path fill="#94B0ED" d="M211.879,390.928c-0.276-1.143,0.224-2.039,1.282-2.041c1.053-0.002,1.978,0.881,2.257,2.035
		c0.277,1.143-0.218,2.038-1.282,2.04C213.072,392.963,212.158,392.081,211.879,390.928z M214.52,390.923
		c-0.173-0.715-0.657-1.255-1.181-1.254s-0.738,0.524-0.561,1.257c0.175,0.721,0.651,1.254,1.18,1.254
		C214.487,392.179,214.695,391.648,214.52,390.923z"/>
	<path fill="#F99746" d="M198.6,438.765c-0.277-1.143,0.224-2.039,1.282-2.04c1.053-0.002,1.979,0.881,2.258,2.033
		c0.276,1.143-0.218,2.039-1.282,2.041S198.879,439.919,198.6,438.765z M201.241,438.76c-0.173-0.715-0.657-1.254-1.181-1.254
		c-0.523,0.002-0.738,0.525-0.561,1.258c0.174,0.72,0.651,1.254,1.18,1.253S201.417,439.486,201.241,438.76z"/>
	<path fill="#F99746" d="M204.298,437.635l-0.653,0.17l-0.354-0.709l1.062-0.34l0.598-0.001l0.961,3.968l-0.865,0.002
		L204.298,437.635z"/>
	<path fill="#94B0ED" d="M187.791,427.695l-0.654,0.17l-0.354-0.709l1.062-0.34l0.598-0.001l0.96,3.968l-0.865,0.002
		L187.791,427.695z"/>
	<path fill="#94B0ED" d="M190.895,428.811c-0.276-1.143,0.224-2.039,1.282-2.041c1.053-0.002,1.978,0.881,2.257,2.035
		c0.277,1.143-0.218,2.039-1.282,2.041C192.088,430.847,191.175,429.964,190.895,428.811z M193.536,428.806
		c-0.173-0.714-0.657-1.255-1.181-1.253c-0.523,0-0.738,0.524-0.561,1.256c0.174,0.721,0.651,1.255,1.18,1.254
		S193.711,429.531,193.536,428.806z"/>
	<path fill="#94B0ED" d="M196.188,428.801c-0.276-1.143,0.224-2.038,1.282-2.039c1.053-0.002,1.978,0.88,2.257,2.033
		c0.277,1.143-0.218,2.039-1.282,2.041C197.381,430.838,196.467,429.955,196.188,428.801z M198.828,428.797
		c-0.173-0.715-0.657-1.254-1.18-1.254c-0.524,0.002-0.738,0.525-0.562,1.258c0.175,0.72,0.651,1.254,1.181,1.253
		C198.796,430.053,199.004,429.523,198.828,428.797z"/>
	<path fill="#94B0ED" d="M201.886,427.671l-0.653,0.171l-0.354-0.709l1.062-0.34l0.598-0.001l0.961,3.968l-0.865,0.002
		L201.886,427.671z"/>
	<path fill="#94B0ED" d="M190.203,437.658l-0.653,0.17l-0.354-0.709l1.062-0.34l0.598-0.001l0.961,3.968l-0.865,0.002
		L190.203,437.658z"/>
	<path fill="#94B0ED" d="M193.308,438.773c-0.276-1.143,0.224-2.039,1.282-2.041c1.053-0.002,1.978,0.881,2.257,2.035
		c0.276,1.143-0.218,2.039-1.282,2.041C194.501,440.81,193.587,439.928,193.308,438.773z M195.948,438.77
		c-0.173-0.715-0.657-1.255-1.181-1.254c-0.523,0-0.738,0.525-0.561,1.256c0.174,0.721,0.651,1.255,1.18,1.254
		C195.917,440.025,196.124,439.496,195.948,438.77z"/>
	<path fill="#94B0ED" d="M207.403,438.75c-0.276-1.143,0.224-2.039,1.282-2.041c1.053-0.002,1.978,0.881,2.257,2.035
		c0.276,1.143-0.218,2.038-1.282,2.04C208.597,440.786,207.683,439.903,207.403,438.75z M210.044,438.745
		c-0.173-0.715-0.657-1.255-1.18-1.253c-0.524,0-0.738,0.524-0.562,1.256c0.175,0.721,0.651,1.255,1.181,1.254
		C210.012,440.001,210.22,439.472,210.044,438.745z"/>
	<path fill="#94B0ED" d="M212.695,438.74c-0.276-1.143,0.224-2.038,1.282-2.04c1.053-0.001,1.978,0.881,2.257,2.034
		c0.277,1.143-0.218,2.039-1.282,2.041C213.889,440.777,212.975,439.895,212.695,438.74z M215.336,438.736
		c-0.173-0.715-0.657-1.255-1.18-1.254c-0.523,0.002-0.738,0.525-0.561,1.257c0.175,0.721,0.651,1.255,1.18,1.254
		S215.512,439.463,215.336,438.736z"/>
	<path fill="#F99746" d="M200.641,445.799c-0.277-1.143,0.224-2.039,1.282-2.041c1.052-0.001,1.978,0.881,2.257,2.035
		c0.277,1.143-0.218,2.039-1.282,2.04C201.834,447.836,200.92,446.953,200.641,445.799z M203.281,445.795
		c-0.173-0.715-0.657-1.255-1.181-1.254c-0.523,0-0.738,0.524-0.561,1.257c0.174,0.72,0.651,1.255,1.181,1.253
		C203.25,447.051,203.457,446.521,203.281,445.795z"/>
	<path fill="#F99746" d="M206.339,444.669l-0.653,0.17l-0.354-0.709l1.062-0.34l0.598-0.001l0.96,3.969l-0.865,0.001
		L206.339,444.669z"/>
	<path fill="#94B0ED" d="M195.348,445.809c-0.276-1.143,0.224-2.039,1.282-2.041c1.053-0.002,1.978,0.881,2.257,2.034
		c0.277,1.143-0.218,2.039-1.282,2.04C196.542,447.844,195.628,446.961,195.348,445.809z M197.989,445.804
		c-0.173-0.715-0.657-1.255-1.181-1.254c-0.523,0.001-0.738,0.524-0.561,1.257c0.174,0.721,0.651,1.254,1.18,1.254
		C197.957,447.059,198.165,446.529,197.989,445.804z"/>
	<path fill="#94B0ED" d="M209.444,445.784c-0.277-1.143,0.223-2.038,1.282-2.04c1.053-0.002,1.978,0.88,2.258,2.034
		c0.276,1.143-0.218,2.038-1.282,2.04C210.637,447.82,209.724,446.938,209.444,445.784z M212.084,445.779
		c-0.173-0.715-0.657-1.254-1.18-1.254c-0.524,0.002-0.738,0.525-0.561,1.258c0.174,0.721,0.651,1.254,1.18,1.254
		C212.052,447.035,212.26,446.506,212.084,445.779z"/>
	<path fill="#94B0ED" d="M214.736,445.775c-0.277-1.143,0.224-2.039,1.282-2.041c1.053-0.002,1.978,0.881,2.257,2.035
		c0.277,1.143-0.218,2.039-1.282,2.04C215.929,447.812,215.016,446.93,214.736,445.775z M217.377,445.771
		c-0.173-0.714-0.657-1.255-1.181-1.254s-0.738,0.525-0.561,1.257c0.174,0.721,0.651,1.255,1.18,1.254
		C217.345,447.027,217.552,446.496,217.377,445.771z"/>
	<path fill="#94B0ED" d="M217.988,438.732c-0.277-1.143,0.224-2.039,1.282-2.041c1.053-0.002,1.978,0.881,2.257,2.035
		c0.277,1.143-0.218,2.038-1.282,2.04C219.181,440.768,218.268,439.886,217.988,438.732z M220.628,438.728
		c-0.173-0.715-0.657-1.255-1.181-1.254c-0.523,0.001-0.738,0.525-0.561,1.257c0.174,0.721,0.651,1.254,1.18,1.254
		C220.596,439.983,220.804,439.454,220.628,438.728z"/>
	<path fill="#94B0ED" d="M223.28,438.723c-0.277-1.143,0.224-2.039,1.282-2.04c1.053-0.002,1.978,0.88,2.258,2.034
		c0.276,1.143-0.218,2.039-1.282,2.041C224.473,440.76,223.56,439.877,223.28,438.723z M225.92,438.719
		c-0.173-0.715-0.657-1.255-1.18-1.254s-0.738,0.525-0.561,1.256c0.174,0.721,0.651,1.256,1.18,1.254
		C225.889,439.975,226.096,439.445,225.92,438.719z"/>
	<path fill="#94B0ED" d="M363.953,370.305l-0.653,0.17l-0.354-0.709l1.062-0.339l0.598-0.001l0.961,3.968l-0.865,0.001
		L363.953,370.305z"/>
	<path fill="#94B0ED" d="M367.058,371.42c-0.276-1.143,0.225-2.039,1.282-2.04c1.053-0.002,1.979,0.881,2.258,2.034
		c0.276,1.143-0.218,2.039-1.282,2.041S367.338,372.574,367.058,371.42z M369.698,371.416c-0.173-0.715-0.656-1.255-1.18-1.254
		c-0.524,0.001-0.738,0.525-0.562,1.257c0.175,0.72,0.651,1.255,1.18,1.253C369.666,372.672,369.874,372.143,369.698,371.416z"/>
	<path fill="#94B0ED" d="M372.351,371.412c-0.277-1.144,0.224-2.039,1.281-2.041c1.054-0.002,1.979,0.881,2.258,2.034
		c0.276,1.143-0.218,2.039-1.282,2.04C373.543,373.447,372.63,372.565,372.351,371.412z M374.991,371.407
		c-0.174-0.716-0.657-1.255-1.181-1.254s-0.738,0.524-0.562,1.257c0.175,0.721,0.651,1.254,1.181,1.254
		C374.959,372.662,375.166,372.133,374.991,371.407z"/>
	<path fill="#94B0ED" d="M377.643,371.402c-0.276-1.143,0.224-2.039,1.282-2.041c1.053-0.001,1.979,0.881,2.257,2.035
		c0.277,1.143-0.218,2.039-1.281,2.041C378.836,373.439,377.922,372.557,377.643,371.402z M380.283,371.398
		c-0.173-0.715-0.657-1.255-1.181-1.254s-0.738,0.525-0.561,1.256c0.174,0.721,0.651,1.255,1.18,1.254
		C380.251,372.654,380.459,372.124,380.283,371.398z"/>
	<path fill="#94B0ED" d="M383.341,370.272l-0.653,0.17l-0.354-0.709l1.062-0.339l0.598-0.002l0.961,3.969l-0.865,0.001
		L383.341,370.272z"/>
	<path fill="#94B0ED" d="M358.255,380.938c-0.276-1.143,0.224-2.039,1.282-2.041c1.053-0.002,1.978,0.881,2.257,2.035
		c0.277,1.143-0.218,2.039-1.281,2.04C359.448,382.974,358.534,382.091,358.255,380.938z M360.896,380.933
		c-0.173-0.715-0.657-1.255-1.181-1.253c-0.523,0-0.738,0.524-0.562,1.256c0.175,0.721,0.651,1.255,1.181,1.254
		S361.071,381.658,360.896,380.933z"/>
	<path fill="#94B0ED" d="M363.953,379.807l-0.653,0.17l-0.354-0.709l1.062-0.339l0.598-0.001l0.961,3.968l-0.865,0.001
		L363.953,379.807z"/>
	<path fill="#F99746" d="M367.058,380.922c-0.276-1.143,0.225-2.038,1.282-2.04c1.053-0.001,1.979,0.881,2.258,2.034
		c0.276,1.143-0.218,2.039-1.282,2.041S367.338,382.076,367.058,380.922z M369.698,380.918c-0.173-0.715-0.656-1.255-1.18-1.254
		c-0.524,0.001-0.738,0.525-0.562,1.257c0.175,0.721,0.651,1.255,1.18,1.254C369.666,382.174,369.874,381.645,369.698,380.918z"/>
	<path fill="#F99746" d="M372.351,380.914c-0.277-1.143,0.224-2.039,1.281-2.041c1.054-0.002,1.979,0.881,2.258,2.035
		c0.276,1.143-0.218,2.038-1.282,2.04S372.63,382.067,372.351,380.914z M374.991,380.909c-0.174-0.715-0.657-1.255-1.181-1.254
		s-0.738,0.524-0.562,1.257c0.175,0.721,0.651,1.254,1.181,1.254C374.959,382.164,375.166,381.635,374.991,380.909z"/>
	<path fill="#F99746" d="M377.643,380.904c-0.276-1.143,0.224-2.039,1.282-2.04c1.053-0.002,1.979,0.88,2.257,2.034
		c0.277,1.143-0.218,2.039-1.281,2.041C378.836,382.941,377.922,382.059,377.643,380.904z M380.283,380.9
		c-0.173-0.715-0.657-1.255-1.181-1.254s-0.738,0.525-0.561,1.256c0.174,0.721,0.651,1.256,1.18,1.254
		C380.251,382.156,380.459,381.626,380.283,380.9z"/>
	<path fill="#F99746" d="M383.341,379.774l-0.653,0.17l-0.354-0.709l1.062-0.339l0.598-0.002l0.961,3.969l-0.865,0.001
		L383.341,379.774z"/>
	<path fill="#94B0ED" d="M382.265,434.678l-0.653,0.17l-0.354-0.709l1.062-0.339l0.598-0.001l0.961,3.968l-0.865,0.001
		L382.265,434.678z"/>
	<path fill="#94B0ED" d="M385.37,435.793c-0.277-1.143,0.224-2.039,1.282-2.04c1.053-0.002,1.978,0.88,2.258,2.034
		c0.276,1.143-0.219,2.039-1.283,2.041C386.563,437.83,385.649,436.947,385.37,435.793z M388.011,435.789
		c-0.173-0.715-0.657-1.255-1.181-1.254s-0.738,0.525-0.562,1.256c0.175,0.721,0.651,1.256,1.181,1.254
		C387.979,437.045,388.187,436.516,388.011,435.789z"/>
	<path fill="#94B0ED" d="M390.662,435.785c-0.276-1.144,0.224-2.039,1.282-2.041c1.053-0.002,1.979,0.881,2.258,2.034
		c0.276,1.143-0.219,2.039-1.282,2.04C391.855,437.82,390.941,436.938,390.662,435.785z M393.303,435.78
		c-0.173-0.716-0.656-1.255-1.181-1.254c-0.523,0.001-0.738,0.524-0.561,1.257c0.174,0.72,0.651,1.254,1.18,1.254
		C393.271,437.035,393.479,436.506,393.303,435.78z"/>
	<path fill="#94B0ED" d="M377.065,441.137l-0.653,0.17l-0.354-0.709l1.062-0.34h0.598l0.961,3.967l-0.865,0.002L377.065,441.137z"/>
	<path fill="#94B0ED" d="M380.17,442.252c-0.276-1.143,0.224-2.039,1.282-2.04c1.053-0.002,1.979,0.88,2.258,2.034
		c0.276,1.143-0.218,2.039-1.282,2.041S380.449,443.406,380.17,442.252z M382.811,442.248c-0.173-0.715-0.656-1.255-1.18-1.254
		s-0.738,0.525-0.562,1.256c0.175,0.721,0.65,1.256,1.181,1.254C382.779,443.504,382.986,442.975,382.811,442.248z"/>
	<path fill="#94B0ED" d="M385.463,442.243c-0.277-1.143,0.224-2.038,1.282-2.04c1.052-0.002,1.978,0.881,2.257,2.034
		c0.276,1.143-0.218,2.038-1.282,2.04C386.656,444.279,385.742,443.397,385.463,442.243z M388.104,442.238
		c-0.174-0.715-0.657-1.254-1.181-1.254c-0.523,0.002-0.738,0.525-0.561,1.258c0.174,0.721,0.65,1.254,1.18,1.254
		C388.071,443.495,388.279,442.965,388.104,442.238z"/>
	<path fill="#94B0ED" d="M395.954,435.775c-0.276-1.143,0.225-2.039,1.282-2.041c1.053-0.001,1.979,0.881,2.258,2.035
		c0.276,1.143-0.218,2.039-1.282,2.04C397.147,437.813,396.234,436.93,395.954,435.775z M398.595,435.771
		c-0.173-0.715-0.657-1.255-1.18-1.254c-0.523,0-0.738,0.524-0.562,1.256c0.175,0.721,0.651,1.255,1.181,1.254
		C398.563,437.027,398.771,436.497,398.595,435.771z"/>
	<path fill="#94B0ED" d="M401.653,434.646l-0.653,0.17l-0.354-0.709l1.063-0.34l0.598-0.001l0.96,3.969l-0.864,0.001
		L401.653,434.646z"/>
	<g>
		<g>
			<g>
				<g>
					<polygon fill="#2C3A64" points="240.428,378.285 274.078,393.024 274.078,379.91 256.546,372.7 274.078,365.49 
						274.078,352.498 240.428,367.237 					"/>
					<polygon fill="#2C3A64" points="305.014,343.416 275.938,404.193 288.228,404.193 317.304,343.416 					"/>
				</g>
				<polygon fill="#2C3A64" points="319.555,352.498 319.555,365.613 337.086,372.822 319.555,380.033 319.555,393.024 
					353.204,378.285 353.204,367.237 				"/>
			</g>
		</g>
		<rect x="275.938" y="400.724" fill="#2C3A64" width="12.29" height="3.47"/>
		<rect x="311.563" y="339.945" fill="#2C3A64" width="5.741" height="3.471"/>
	</g>
	<g>
		<g>
			<g>
				<polygon fill="#2B478B" points="240.428,374.814 274.078,389.554 274.078,376.439 256.546,369.229 274.078,362.02 
					274.078,349.027 240.428,363.768 				"/>
				<polygon fill="#2B478B" points="305.014,339.945 275.938,400.724 288.228,400.724 317.304,339.945 				"/>
			</g>
			<polygon fill="#2B478B" points="319.555,349.027 319.555,362.143 337.086,369.353 319.555,376.563 319.555,389.554 
				353.204,374.814 353.204,363.768 			"/>
		</g>
	</g>
	<polygon fill="#94B0ED" points="429.145,471.524 427.095,471.524 410.321,407.523 388.76,325.249 147.966,325.249 184.441,471.524 
		181.837,471.552 144.922,323.264 390.455,323.051 390.67,323.869 412.224,406.585 	"/>
	<polygon fill="#AEC3FF" points="429.516,472.952 427.538,473.217 410.321,407.523 412.224,406.585 	"/>
	<path fill="#FFB27D" d="M182.375,359.709c-0.45,0.516-0.507,1.092-0.284,1.706c0,0.003,0.001,0.007,0.004,0.009
		c0.412,1.137,1.771,2.407,3.35,3.676c0.202,0.162,0.381,0.311,0.538,0.447c0.041,0.036,0.083,0.072,0.121,0.108
		c0.032,0.028,0.062,0.058,0.093,0.084c1.473,1.357,0.918,1.669,3.564,4.423c3.017,3.14,5.094,3.195,5.685,2.91
		c0.5-0.244-0.516-1.908-1.642-3.779c-0.054-0.091-0.108-0.182-0.164-0.273c-0.149-0.249-0.298-0.501-0.447-0.752
		c-1.319-2.252-0.98-3.308-0.667-6.659c0.254-2.724,4.237-15.215,4.237-15.215l-5.781-0.995c0,0-1.741,9.946-3.659,11.479
		c-1.026,0.816-2.174,0.826-3.16,1.432c-0.069,0.042-0.138,0.085-0.205,0.129C183.396,358.81,182.825,359.192,182.375,359.709z"/>
	<path fill="#233862" d="M182.375,359.709c-0.45,0.516-0.507,1.092-0.284,1.706c0,0.003,0.001,0.007,0.004,0.009
		c0.504,1.137,1.829,2.399,3.356,3.664c0.199,0.165,0.375,0.317,0.532,0.459c0.041,0.036,0.083,0.072,0.121,0.108
		c0.032,0.028,0.062,0.058,0.093,0.084c1.473,1.357,0.918,1.669,3.564,4.423c3.017,3.14,5.094,3.195,5.685,2.91
		c0.5-0.244-0.516-1.908-1.642-3.779c-0.587-0.216-3.315-1.324-5.377-3.963c-1.816-2.318-3.028-5.297-4.265-7.021
		c-0.069,0.042-0.138,0.085-0.205,0.129C183.396,358.81,182.825,359.192,182.375,359.709z"/>
	<path fill="#FFB27D" d="M228.991,356.099c0.357,1.784,2.901,1.487,5.743,0.792c2.842-0.694,2.167,0.131,6.211-0.316
		c4.044-0.447,5.27-1.956,5.393-2.557c0.11-0.534-1.888-0.723-4.032-0.969c-0.27-0.031-0.54-0.064-0.811-0.098
		c-2.42-0.304-4.193-1.865-6.391-3.148c-2.083-1.215-5.19-6.164-5.19-6.164l-5.547,0.439c0,0,2.911,4.421,4.037,6.343
		c0.662,1.131,0.627,2.626,0.544,3.78C228.905,354.828,228.864,355.47,228.991,356.099z"/>
	<path fill="#233862" d="M234.733,356.891c2.842-0.694,2.167,0.131,6.211-0.316c4.044-0.447,5.27-1.956,5.393-2.557
		c0.11-0.534-1.888-0.723-4.032-0.969l-0.02,0.041c0,0-2.425,1.72-5.792,1.8c-2.744,0.067-5.65-0.72-7.545-0.688
		c-0.043,0.627-0.084,1.269,0.042,1.897C229.348,357.883,231.892,357.586,234.733,356.891z"/>
	<path fill="#2C3A64" d="M207.734,320.631l-5.186,13.953l-6.77,18.219c0,0-1.837,0.177-3.596-0.329
		c-1.62-0.468-3.479-1.693-3.479-1.693s1.88-19.562,5.386-30.791c0.898-2.882,1.906-5.214,3.017-6.526
		C202.543,307.039,207.734,320.631,207.734,320.631z"/>
	<path fill="#2F539B" d="M202.462,298.471c-3.397-1.096-13.086,0.312-22.819,2.217l-2.038-3.361l-21.023-1.642
		c0,0-6.937,15.384-3.139,25.187c0.558,1.44,1.667,2.364,3.558,2.395c0.001,0.001,0.306,0,0.307,0c0,0,12.512-0.007,16.575-0.007
		c10.455,0,22.126-7.187,23.636-7.489c2.472-0.494,3.46,4.449,5.931,9.639s23.23,22.982,23.23,22.982s3.19,0.031,4.508-0.463
		c1.417-0.531,1.936-1.222,1.936-1.222S210.123,300.942,202.462,298.471z"/>
	<path fill="#2B478B" d="M170.639,233.327c-2.946-0.758-6.978-0.003-7.646,0.063c-7.999,0.788-10.687,9.711-9.476,16.634
		c1.117,6.389-2.124,8.157-5.879,13.203c-7.53,10.119-2.608,18.65,3.333,20.85c3.565,1.319,8.515-2.01,8.515-2.01
		c0.089,0.035,15.553-10.131,21.892-15.862C191.935,262.074,178.146,235.258,170.639,233.327z"/>
	<path fill="#FFB27D" d="M171.821,262.593c0.21,0.74-3.289,2.102-5.96,1.601c-2.512-0.469-5.329-3.411-4.748-3.687
		c0.961-0.457,1.609-1.593,1.083-7.737l0.478,0.054l8.04,0.918c0,0,0.024,2.505,0.211,4.851
		C171.08,260.562,171.478,261.385,171.821,262.593z"/>
	<path fill="#ED975D" d="M170.713,253.741c0,0,0.024,2.505,0.211,4.851c-4.437,0.238-7.108-3.608-8.25-5.769L170.713,253.741z"/>
	<path fill="#FFB27D" d="M172.374,255.841c0,0-10.46,1.032-11.002-5.492c-0.542-6.524-2.257-10.785,4.398-11.719
		c6.655-0.935,8.161,1.447,8.872,3.58C175.352,244.344,175.081,255.405,172.374,255.841z"/>
	<path fill="#2B478B" d="M171.253,237.601c0,0-1.317,7.97-7.274,9.861c-4.346,1.379-6.314,0.47-6.314,0.47s2.092-2.774,2.835-6.63
		c0.219-1.137,1.028-2.072,2.127-2.434C165.715,237.851,169.458,235.073,171.253,237.601z"/>
	<path fill="#2B478B" d="M169.282,239.301c0,0,1.971,0.439,3.718,2.982c0.955,1.39,2.061,4.895,1.872,6.446
		c0,0,1.831-7.376-0.838-10.12C171.202,235.699,169.282,239.301,169.282,239.301z"/>
	<path fill="#F99746" d="M152.986,284.023c0.187,0.792,0.347,1.521,0.476,2.193c0.213,1.085,0.359,2.02,0.463,2.846
		c0.319,2.572,0.223,4.098,0.439,5.765c0.12,0.932,0.339,1.91,0.782,3.138c0.433,1.195,11.799,2.261,18.266,1.832
		c2.054-0.134,3.618-0.424,4.174-0.902c2.307-2.004,2.077,2.402,2.393-18.683c0.153-10.284-8.727-19.444-8.727-19.444
		s-0.709,4.393-9.516-0.835c-0.313-0.183-3.781,4.953-7.12,11.276C150.939,278.195,151.948,279.673,152.986,284.023z"/>
	<path fill="#2B478B" d="M202.548,334.584l-6.77,18.219c0,0-1.837,0.177-3.596-0.329c-1.62-0.468-3.479-1.693-3.479-1.693
		s1.88-19.562,5.386-30.791L202.548,334.584z"/>
	<path fill="#F99746" d="M171.253,260.766c0,0,9.062,1.537,10.125,5.438s8.416,25.722,8.416,25.722s-5.696,1.943-7.825-0.185
		c-2.128-2.128-7.405-19.744-7.405-19.744L171.253,260.766z"/>
	<path fill="#FFB27D" d="M208.193,286.911l2.147-0.852c0,0,1.291-0.286,1.988-0.067c0.698,0.22,2.443,0.197,2.451,0.482
		c0.008,0.287-1.989,1.177-1.989,1.177l-0.063-0.024c0.759,1.719,4.554,2.7,4.737,3.331c0.222,0.765-1.543,1.159-2.505,1.397
		s-3.318,0.215-4.48-1.011c-0.849-0.896-2.285-2.127-2.285-2.127V286.911z"/>
	<path fill="#FFFFFF" d="M169.959,251.994c0,0,0.438,1.073,1.596,1.073s1.472-0.173,1.69-0.418c0.219-0.246,0.437-0.718,0.437-0.718
		S171.764,251.551,169.959,251.994z"/>
	<path fill="#F99746" d="M187.268,284.385l21.938,1.676c0,0,0.459,2.127-0.956,4.539c0,0-19.791,3.869-24.957,1.893
		c-5.165-1.976-4.583-11.295-4.583-11.295L187.268,284.385z"/>
	<path fill="#ED7D2B" d="M153.925,289.063c0.319,2.572,0.223,4.098,0.439,5.765c8.228,0.026,19.228-6.354,19.228-6.354
		L153.925,289.063z"/>
	<path fill="#ED7D2B" d="M173.592,283.077c0,0-12.817-0.382-14.978-7.667c-2.374-8.004-5.032,3.291-5.032,3.291l1.415,7.209h14.062
		L173.592,283.077z"/>
	<g>
		<path fill="#AEC3FF" d="M195.937,263.308l-0.692-1.715c-0.743-1.839-2.528-3.043-4.511-3.043h-12.777v8.108v34.614h52.856v-34.614
			h-29.911C198.718,266.657,196.754,265.332,195.937,263.308z"/>
		<g>
			<path fill="#FFFFFF" d="M185.928,284.529v-3.08l10.801-4.73v3.146l-7.543,3.102l7.543,3.102v3.191L185.928,284.529z"/>
			<path fill="#FFFFFF" d="M207.954,273.036h2.879l-9.886,20.666h-2.878L207.954,273.036z"/>
			<path fill="#FFFFFF" d="M222.839,281.449v3.08l-10.801,4.73v-3.146l7.543-3.102l-7.543-3.103v-3.19L222.839,281.449z"/>
		</g>
	</g>
	<path fill="#FFB27D" d="M173.59,284.766l0.927-1.455c0,0,0.734-0.239,1.764-0.962c1.224-0.86,1.063-2.147,1.674-2.012l0.007,2.831
		l-0.066,0.009c2.627,0.702,5.699-0.061,5.76,0.593c0.169,1.8-1.223,2.609-2.388,3.173c-0.893,0.432-1.906,1.079-3.519,0.577
		c-1.178-0.367-3.033-0.74-3.033-0.74L173.59,284.766z"/>
	<path fill="#F99746" d="M161.735,259.934c0,0-8.32,0.544-10.4,3.79c-2.081,3.245-4.66,19.72-3.578,25.378
		s27.727-1.081,27.727-1.081l-0.85-4.909c0,0-15.377,0.089-16.253-1.914C157.215,278.535,161.735,259.934,161.735,259.934z"/>
	<path fill="#FFB27D" d="M201.899,266.639c-0.071,0.216,1.251,2.396,3.141,2.017c1.178-0.236,2.709-2.772,1.364-3.332
		C204.158,264.391,202.09,266.063,201.899,266.639z"/>
</g>
<rect x="28" y="146" fill="#85A5DD" width="84" height="84"/>
<rect x="24" y="141" fill="#94B0ED" width="84" height="84"/>
<g>
	<path fill="#FFFFFF" d="M35.353,174.449v7.513h7.281v-7.513h4.409V194h-4.409v-8.18h-7.281V194h-4.438v-19.551H35.353z"/>
	<path fill="#FFFFFF" d="M54.667,178.162h-5.25v-3.713h15.026v3.713h-5.337V194h-4.438V178.162z"/>
	<path fill="#FFFFFF" d="M83.205,186.516c-0.087-2.35-0.174-5.192-0.174-8.035h-0.087c-0.609,2.495-1.421,5.279-2.176,7.571
		l-2.378,7.629h-3.452l-2.089-7.571c-0.638-2.292-1.305-5.077-1.769-7.629h-0.058c-0.116,2.64-0.203,5.656-0.348,8.093L70.326,194
		h-4.09l1.247-19.551h5.889l1.914,6.527c0.609,2.262,1.219,4.699,1.654,6.991h0.087c0.551-2.263,1.218-4.844,1.856-7.02l2.088-6.498
		h5.772L87.817,194h-4.322L83.205,186.516z"/>
	<path fill="#FFFFFF" d="M91.205,174.449h4.438v15.838h7.774V194H91.205V174.449z"/>
</g>
<rect x="154" y="21" fill="#DDBB66" width="84" height="84"/>
<rect x="150" y="16" fill="#EDCC72" width="84" height="84"/>
<g>
	<path fill="#FFFFFF" d="M187.743,47.449h4.409v12.357c0,5.569-2.668,7.513-6.961,7.513c-1.016,0-2.35-0.174-3.22-0.464l0.493-3.568
		c0.609,0.203,1.393,0.348,2.263,0.348c1.856,0,3.017-0.841,3.017-3.887V47.449z"/>
	<path fill="#FFFFFF" d="M195.979,62.446c1.189,0.609,3.017,1.218,4.902,1.218c2.03,0,3.104-0.841,3.104-2.117
		c0-1.218-0.928-1.915-3.278-2.756c-3.249-1.131-5.366-2.93-5.366-5.772c0-3.336,2.785-5.888,7.397-5.888
		c2.204,0,3.829,0.464,4.989,0.986l-0.986,3.568c-0.783-0.377-2.176-0.929-4.09-0.929s-2.843,0.871-2.843,1.886
		c0,1.247,1.103,1.798,3.626,2.756c3.452,1.276,5.076,3.075,5.076,5.83c0,3.278-2.523,6.063-7.89,6.063
		c-2.233,0-4.438-0.58-5.541-1.189L195.979,62.446z"/>
</g>
<rect x="357" y="54" fill="#E8853A" width="84" height="84"/>
<rect x="353" y="50" fill="#F99746" width="84" height="84"/>
<g>
	<path fill="#FFFFFF" d="M370.914,83.71c1.363-0.232,3.278-0.406,5.976-0.406c2.728,0,4.671,0.522,5.976,1.566
		c1.248,0.986,2.088,2.611,2.088,4.525c0,1.915-0.638,3.539-1.798,4.641c-1.509,1.421-3.741,2.06-6.353,2.06
		c-0.58,0-1.102-0.029-1.508-0.087V103h-4.381V83.71z M375.295,92.586c0.377,0.087,0.841,0.116,1.479,0.116
		c2.35,0,3.801-1.189,3.801-3.191c0-1.798-1.248-2.872-3.452-2.872c-0.899,0-1.509,0.087-1.827,0.174V92.586z"/>
	<path fill="#FFFFFF" d="M392.201,83.449v7.513h7.281v-7.513h4.408V103h-4.408v-8.18h-7.281V103h-4.438V83.449H392.201z"/>
	<path fill="#FFFFFF" d="M407.744,83.71c1.363-0.232,3.277-0.406,5.976-0.406c2.727,0,4.67,0.522,5.976,1.566
		c1.247,0.986,2.088,2.611,2.088,4.525c0,1.915-0.638,3.539-1.799,4.641c-1.508,1.421-3.741,2.06-6.352,2.06
		c-0.58,0-1.103-0.029-1.509-0.087V103h-4.38V83.71z M412.124,92.586c0.377,0.087,0.841,0.116,1.479,0.116
		c2.35,0,3.8-1.189,3.8-3.191c0-1.798-1.247-2.872-3.452-2.872c-0.898,0-1.508,0.087-1.827,0.174V92.586z"/>
</g>
<rect x="259" y="167" fill="#29ACB2" width="84" height="84"/>
<rect x="254" y="162" fill="#36BECC" width="84" height="84"/>
<g>
	<path fill="#FFFFFF" d="M277.06,212.446c1.189,0.609,3.017,1.218,4.902,1.218c2.03,0,3.104-0.841,3.104-2.117
		c0-1.218-0.929-1.915-3.278-2.756c-3.248-1.131-5.366-2.93-5.366-5.772c0-3.336,2.785-5.888,7.397-5.888
		c2.204,0,3.828,0.464,4.988,0.986l-0.985,3.568c-0.783-0.377-2.176-0.929-4.091-0.929c-1.914,0-2.842,0.871-2.842,1.886
		c0,1.247,1.102,1.798,3.625,2.756c3.453,1.276,5.076,3.075,5.076,5.83c0,3.278-2.523,6.063-7.889,6.063
		c-2.234,0-4.438-0.58-5.541-1.189L277.06,212.446z"/>
	<path fill="#FFFFFF" d="M309.282,220.365c-2.784-0.812-5.105-1.653-7.716-2.755c-0.436-0.174-0.899-0.261-1.363-0.291
		c-4.409-0.29-8.528-3.539-8.528-9.92c0-5.86,3.713-10.269,9.544-10.269c5.975,0,9.252,4.525,9.252,9.862
		c0,4.438-2.059,7.571-4.641,8.731v0.116c1.509,0.435,3.191,0.783,4.729,1.102L309.282,220.365z M305.801,207.167
		c0-3.568-1.682-6.526-4.699-6.526c-3.016,0-4.756,2.958-4.756,6.614c-0.029,3.713,1.769,6.555,4.728,6.555
		C304.061,213.809,305.801,210.996,305.801,207.167z"/>
	<path fill="#FFFFFF" d="M313.367,197.449h4.438v15.838h7.774V217h-12.212V197.449z"/>
</g>
<rect x="433" y="203" fill="#85A5DD" width="84" height="84"/>
<rect x="428" y="198" fill="#94B0ED" width="84" height="84"/>
<g>
	<path fill="#FFFFFF" d="M472.273,252.449c-0.813,0.406-2.641,0.841-5.019,0.841c-6.759,0-10.239-4.206-10.239-9.775
		c0-6.671,4.757-10.384,10.674-10.384c2.292,0,4.032,0.464,4.815,0.87l-0.899,3.51c-0.898-0.377-2.146-0.725-3.713-0.725
		c-3.51,0-6.236,2.118-6.236,6.469c0,3.916,2.32,6.381,6.266,6.381c1.334,0,2.813-0.29,3.684-0.638L472.273,252.449z"/>
	<path fill="#FFFFFF" d="M475.923,253l0.755-5.192h-2.35v-2.668h2.813l0.465-3.249h-2.466v-2.697h2.872l0.725-5.047h2.582
		l-0.725,5.047h2.639l0.754-5.047h2.582l-0.754,5.047h2.32v2.697h-2.727l-0.464,3.249h2.407v2.668h-2.842L483.783,253h-2.609
		l0.725-5.192h-2.64L478.533,253H475.923z M482.363,245.139l0.463-3.249h-2.639l-0.465,3.249H482.363z"/>
</g>
<g>
	<g>
		<path fill="#E49963" d="M461.501,451.275c0,0-4.007,1.028-6.554,0.262c-2.547-0.768-6.929,0.493-7.636,1.421
			c-0.705,0.929-0.445,1.298,0.813,1.618c1.26,0.32,5.722,2.225,8.655,1.122c2.933-1.102,6.758-1.142,6.758-1.142L461.501,451.275z"
			/>
		<path fill="#4A75CB" d="M496.124,416.476c0,0-4.501,31.985-11.953,34.851c-3.677,1.413-19.927,4.618-24.733,4.938
			c0,0-1.179-0.955-0.891-4.843c0,0,17.025-6.25,19.443-9.65c3.601-5.059-2.233-20.666,2.282-25.418
			C484.789,411.602,492.396,409.56,496.124,416.476z"/>
	</g>
	<path fill="#2B478B" d="M493.523,543.292h-2.174c-1.113,0-2.024-0.911-2.024-2.024v-50.417c0-1.113,0.911-2.025,2.024-2.025h2.174
		c1.113,0,2.024,0.912,2.024,2.025v50.417C495.548,542.381,494.637,543.292,493.523,543.292z"/>
	<path fill="#2B478B" d="M511.643,546.872c-2.014-4.166-9.849-7.273-19.205-7.273c-9.358,0-17.193,3.107-19.206,7.273H511.643z"/>
	<path fill="#2B478B" d="M506.528,532.743h-28.183c-0.296,0-0.538-0.242-0.538-0.538v-1.118c0-0.295,0.242-0.539,0.538-0.539h28.183
		c0.296,0,0.538,0.244,0.538,0.539v1.118C507.066,532.501,506.824,532.743,506.528,532.743z"/>
	<path fill="#163560" d="M494.606,483.862c-1.313,2.227-2.831,4.313-4.396,6.29c-4.836,6.105-10.102,11.141-11.019,15.899
		c-0.183,0.948-0.472,1.97-0.851,3.046c-0.382,1.09-0.856,2.236-1.402,3.422c-2.054,4.458-5.122,9.453-8.188,13.994
		c-5.298,7.851-10.279,14.401-10.279,14.401l-9.136-0.389c0.366-0.917,4.351-11.756,9.682-25.002
		c2.164-5.377,4.466-11.097,6.686-16.612c0.296-0.737,0.592-1.471,0.886-2.198c0.679-1.688,1.347-3.35,1.999-4.967
		c5.005-12.438,8.992-22.342,8.992-22.342s20.004-7.578,22.081-2.669C501.374,470.786,499.979,474.752,494.606,483.862z"/>
	<path fill="#163560" d="M458.186,539.253c0,0-0.467,7.539-1.925,7.647c-0.193,0.015-7.397,0.015-7.397,0.015l-9.196-0.054
		c0,0,0.061-2.216,2.748-2.685c2.689-0.468,7.188-2.357,8.815-5.91C452.943,534.529,458.186,539.253,458.186,539.253z"/>
	<path fill="#163560" d="M479.341,517.717c0,0,6.354,4.083,5.738,5.409c-0.082,0.177-3.594,6.466-3.594,6.466l-4.529,8.003
		c0,0-1.905-1.132-1.004-3.707c0.9-2.576,1.445-7.426-0.863-10.578C472.661,519.991,479.341,517.717,479.341,517.717z"/>
	<path fill="#1C468A" d="M470.394,466.032c0,0-24.76,15.416-27.563,25.928c-2.803,10.51,33.402,32.934,33.402,32.934
		s3.971-3.503,4.671-6.072c0,0-16.365-19.606-19.914-24.002c-2.181-2.699,32.235-9.345,36.438-15.884
		c4.205-6.54,2.7-12.043,2.7-12.043L470.394,466.032z"/>
	<path fill="#EE9849" d="M518.132,499.907h-51.39c-1.028,0-1.869-0.841-1.869-1.869V487.76c0-1.026,0.841-1.868,1.869-1.868h51.39
		c1.028,0,1.868,0.842,1.868,1.868v10.278C520,499.066,519.16,499.907,518.132,499.907z"/>
	<path fill="#E49963" d="M482.354,410.993c-2.466,1.527-3.825,3.466-3.825,3.466c6.016,1.556,15.987-4.018,15.987-4.018
		s-3.872-2.603-5.307-8.318c-0.072-0.289-0.139-0.585-0.196-0.888c-0.188-0.962-0.305-2.005-0.325-3.13l-2.765,2.476l-4.595,4.117
		c0,0,0.104,1.707,0.68,4.646C482.109,409.856,482.223,410.407,482.354,410.993z"/>
	<path fill="#739AF0" d="M500.887,439.395c-0.861,11.589,0.271,29.214-0.706,32.266c-0.843,2.635-10.455,1.068-14.292,0.189
		c-1.419-0.325-3.141-0.79-4.917-1.34c-4.955-1.535-10.354-3.726-10.934-5.352c-0.021-0.064-0.041-0.126-0.053-0.188
		c-0.054-0.236-0.041-0.457,0.01-0.681c0.193-0.829,0.938-1.727,1.024-3.78c0.1-2.292,0.084-4.99,0.17-7.893
		c0.005-0.326,0.009-0.683,0.044-1.009l0.003-0.118c0.001-0.063,0.002-0.123,0.004-0.186c0.084-3.237,0.252-6.641,0.448-10.016
		c0.126-2.119,0.269-4.218,0.437-6.229c0.432-5.191,1.014-9.809,1.784-12.728c1.261-4.758,4.038-7.859,6.565-10.135l1.829-1.568
		c2.04,0.446,4.453,0.15,6.635-0.884c2.361-1.121,3.177-1.925,3.589-1.622C497.981,412.333,501.904,425.228,500.887,439.395z"/>
	<path fill="#4A75CB" d="M480.972,470.51c-4.955-1.535-10.354-3.726-10.934-5.352c-0.021-0.064-0.041-0.126-0.053-0.188
		c0.003-0.227,0.007-0.454,0.01-0.681c0.193-0.829,0.938-1.727,1.024-3.78c0.1-2.292,0.084-4.99,0.17-7.893
		c0.005-0.326,0.009-0.683,0.044-1.009l0.003-0.118c0.001-0.063,0.002-0.123,0.004-0.186l18.718-8.49
		C489.958,442.814,491.036,457.9,480.972,470.51z"/>
	<path fill="#D68D5D" d="M481.329,404.698c0,0,0.104,1.707,0.68,4.646c4.486-1.449,6.522-5.502,7.201-7.221
		c0.193-0.485,0.278-0.786,0.278-0.786s-0.175-0.037-0.475-0.102c-0.632-0.134-1.819-0.385-3.09-0.654L481.329,404.698z"/>
	<path fill="#E49963" d="M479.514,404.652c0,0,9.857,1.111,10.455-5.037c0.598-6.149,2.272-10.147-3.996-11.118
		c-6.269-0.97-7.722,1.259-8.42,3.262C476.854,393.763,476.965,404.205,479.514,404.652z"/>
	<path fill="#2B478B" d="M489.926,400.039c0,0-0.625-8.162-9.598-9.009c-6.146-0.579-2.72-5.868-2.064-6.712
		c0,0,4.709,0.646,9.536,1.443C497.93,387.437,490.921,398.769,489.926,400.039z"/>
	<g>
		
			<rect x="437.654" y="436.257" transform="matrix(0.9514 -0.3078 0.3078 0.9514 -116.6722 156.6179)" fill="#4A75CB" width="0.907" height="23.755"/>
		
			<rect x="441.328" y="457.814" transform="matrix(0.9998 -0.0213 0.0213 0.9998 -9.6861 9.7923)" fill="#4A75CB" width="24.93" height="1.491"/>
	</g>
	<g>
		<path fill="#E49963" d="M463.562,456.192c0,0-3.867,1.465-6.483,0.982c-2.615-0.482-6.833,1.254-7.432,2.255
			c-0.6,1.001-0.301,1.339,0.985,1.519c1.288,0.18,5.933,1.58,8.726,0.161c2.794-1.418,6.591-1.879,6.591-1.879L463.562,456.192z"/>
		<path fill="#739AF0" d="M494.137,417.788c0,0-0.945,32.287-8.037,35.955c-3.498,1.811-19.296,6.786-24.038,7.637
			c0,0-1.275-0.819-1.42-4.716c0,0,16.233-8.09,18.262-11.735c3.021-5.424-4.499-20.294-0.534-25.515
			C482.336,414.193,489.671,411.326,494.137,417.788z"/>
	</g>
</g>
</svg>
